<?xml version="1.0" encoding="UTF-8" standalone="no"?>
<!DOCTYPE svg PUBLIC "-//W3C//DTD SVG 1.1//EN"
 "http://www.w3.org/Graphics/SVG/1.1/DTD/svg11.dtd">
<!-- Generated by graphviz version 2.36.0 (20140111.2315)
 -->
<!-- Title: REVDAG Pages: 1 -->
<svg width="1530pt" height="444pt"
 viewBox="0.00 0.00 1530.00 444.00" xmlns="http://www.w3.org/2000/svg" xmlns:xlink="http://www.w3.org/1999/xlink">
<g id="graph0" class="graph" transform="scale(1 1) rotate(0) translate(18 426)">
<title>REVDAG</title>
<polygon fill="#eee0e5" stroke="none" points="-18,18 -18,-426 1512,-426 1512,18 -18,18"/>
<!-- n_rate_matrix -->
<g id="node1" class="node"><title>n_rate_matrix</title>
<ellipse fill="white" stroke="black" stroke-dasharray="5,2" cx="1250" cy="-117" rx="132.404" ry="26.7407"/>
<text text-anchor="middle" x="1250" y="-120.8" font-family="Times,serif" font-size="14.00">rate_matrix</text>
<text text-anchor="middle" x="1250" y="-105.8" font-family="Times,serif" font-size="14.00">[ fnFreeBinary(Real[]&lt;any&gt;) ]</text>
</g>
<!-- n_timetree -->
<g id="node6" class="node"><title>n_timetree</title>
<ellipse fill="gray" stroke="black" cx="941" cy="-27" rx="39.9464" ry="18"/>
<text text-anchor="middle" x="941" y="-23.3" font-family="Times,serif" font-size="14.00">timetree</text>
</g>
<!-- n_rate_matrix&#45;&gt;n_timetree -->
<g id="edge1" class="edge"><title>n_rate_matrix&#45;&gt;n_timetree</title>
<path fill="none" stroke="black" d="M1175.2,-94.6977C1115.21,-77.6134 1033.15,-54.2424 983.783,-40.1841"/>
<polygon fill="black" stroke="black" points="984.64,-36.7891 974.064,-37.4162 982.723,-43.5215 984.64,-36.7891"/>
</g>
<!-- n_0x7f8614b35100 -->
<g id="node2" class="node"><title>n_0x7f8614b35100</title>
<ellipse fill="white" stroke="black" stroke-dasharray="5,2" cx="1250" cy="-207" rx="92.4462" ry="26.7407"/>
<text text-anchor="middle" x="1250" y="-210.8" font-family="Times,serif" font-size="14.00">function</text>
<text text-anchor="middle" x="1250" y="-195.8" font-family="Times,serif" font-size="14.00">[ v(RealPos&lt;any&gt;) ]</text>
</g>
<!-- n_0x7f8614b35100&#45;&gt;n_rate_matrix -->
<g id="edge2" class="edge"><title>n_0x7f8614b35100&#45;&gt;n_rate_matrix</title>
<path fill="none" stroke="black" stroke-dasharray="5,2" d="M1250,-180.073C1250,-171.999 1250,-162.943 1250,-154.296"/>
<polygon fill="black" stroke="black" points="1253.5,-154.046 1250,-144.046 1246.5,-154.046 1253.5,-154.046"/>
</g>
<!-- n_rate_12 -->
<g id="node3" class="node"><title>n_rate_12</title>
<ellipse fill="white" stroke="black" cx="1203" cy="-297" rx="37.5442" ry="18"/>
<text text-anchor="middle" x="1203" y="-293.3" font-family="Times,serif" font-size="14.00">rate_12</text>
</g>
<!-- n_rate_12&#45;&gt;n_0x7f8614b35100 -->
<g id="edge3" class="edge"><title>n_rate_12&#45;&gt;n_0x7f8614b35100</title>
<path fill="none" stroke="black" stroke-dasharray="5,2" d="M1211.84,-279.448C1217.36,-269.111 1224.68,-255.41 1231.43,-242.772"/>
<polygon fill="black" stroke="black" points="1234.59,-244.291 1236.21,-233.821 1228.41,-240.993 1234.59,-244.291"/>
</g>
<!-- n_rate_pr -->
<g id="node4" class="node"><title>n_rate_pr</title>
<polygon fill="white" stroke="black" points="1214.5,-361 1214.5,-407 1283.5,-407 1283.5,-361 1214.5,-361"/>
<text text-anchor="middle" x="1249" y="-391.8" font-family="Times,serif" font-size="14.00">rate_pr</text>
<polyline fill="none" stroke="black" points="1214.5,-384 1283.5,-384 "/>
<text text-anchor="middle" x="1249" y="-368.8" font-family="Times,serif" font-size="14.00">174.8231</text>
</g>
<!-- n_rate_pr&#45;&gt;n_rate_12 -->
<g id="edge5" class="edge"><title>n_rate_pr&#45;&gt;n_rate_12</title>
<path fill="none" stroke="black" d="M1236.91,-360.667C1230.74,-349.257 1223.2,-335.321 1216.8,-323.491"/>
<polygon fill="black" stroke="black" points="1219.79,-321.672 1211.95,-314.543 1213.63,-325.004 1219.79,-321.672"/>
</g>
<!-- n_rate_21 -->
<g id="node5" class="node"><title>n_rate_21</title>
<ellipse fill="white" stroke="black" cx="1296" cy="-297" rx="37.5442" ry="18"/>
<text text-anchor="middle" x="1296" y="-293.3" font-family="Times,serif" font-size="14.00">rate_21</text>
</g>
<!-- n_rate_pr&#45;&gt;n_rate_21 -->
<g id="edge4" class="edge"><title>n_rate_pr&#45;&gt;n_rate_21</title>
<path fill="none" stroke="black" d="M1261.35,-360.667C1267.66,-349.257 1275.36,-335.321 1281.91,-323.491"/>
<polygon fill="black" stroke="black" points="1285.08,-324.988 1286.85,-314.543 1278.95,-321.601 1285.08,-324.988"/>
</g>
<!-- n_rate_21&#45;&gt;n_0x7f8614b35100 -->
<g id="edge6" class="edge"><title>n_rate_21&#45;&gt;n_0x7f8614b35100</title>
<path fill="none" stroke="black" stroke-dasharray="5,2" d="M1287.35,-279.448C1281.94,-269.111 1274.78,-255.41 1268.18,-242.772"/>
<polygon fill="black" stroke="black" points="1271.23,-241.062 1263.5,-233.821 1265.03,-244.305 1271.23,-241.062"/>
</g>
<!-- n_extinction -->
<g id="node7" class="node"><title>n_extinction</title>
<ellipse fill="white" stroke="black" stroke-dasharray="5,2" cx="92" cy="-117" rx="92.4462" ry="26.7407"/>
<text text-anchor="middle" x="92" y="-120.8" font-family="Times,serif" font-size="14.00">extinction</text>
<text text-anchor="middle" x="92" y="-105.8" font-family="Times,serif" font-size="14.00">[ v(RealPos&lt;any&gt;) ]</text>
</g>
<!-- n_extinction&#45;&gt;n_timetree -->
<g id="edge7" class="edge"><title>n_extinction&#45;&gt;n_timetree</title>
<path fill="none" stroke="black" d="M156.678,-97.7888C168.993,-94.8128 181.835,-92.0407 194,-90 454.011,-46.3843 770.325,-32.9722 890.983,-29.2745"/>
<polygon fill="black" stroke="black" points="891.137,-32.7715 901.029,-28.9754 890.929,-25.7746 891.137,-32.7715"/>
</g>
<!-- n_extinction_1 -->
<g id="node8" class="node"><title>n_extinction_1</title>
<ellipse fill="white" stroke="black" cx="325" cy="-207" rx="57.2688" ry="18"/>
<text text-anchor="middle" x="325" y="-203.3" font-family="Times,serif" font-size="14.00">extinction[1]</text>
</g>
<!-- n_extinction_1&#45;&gt;n_extinction -->
<g id="edge9" class="edge"><title>n_extinction_1&#45;&gt;n_extinction</title>
<path fill="none" stroke="black" stroke-dasharray="5,2" d="M290.072,-192.601C279.456,-188.54 267.755,-184.077 257,-180 223.95,-167.472 187.136,-153.628 156.681,-142.206"/>
<polygon fill="black" stroke="black" points="157.622,-138.821 147.03,-138.587 155.165,-145.375 157.622,-138.821"/>
</g>
<!-- n_diversification_1 -->
<g id="node13" class="node"><title>n_diversification_1</title>
<ellipse fill="white" stroke="black" stroke-dasharray="5,2" cx="482" cy="-117" rx="86.4614" ry="26.7407"/>
<text text-anchor="middle" x="482" y="-120.8" font-family="Times,serif" font-size="14.00">diversification[1]</text>
<text text-anchor="middle" x="482" y="-105.8" font-family="Times,serif" font-size="14.00">[ sub(Real&lt;any&gt;) ]</text>
</g>
<!-- n_extinction_1&#45;&gt;n_diversification_1 -->
<g id="edge8" class="edge"><title>n_extinction_1&#45;&gt;n_diversification_1</title>
<path fill="none" stroke="black" stroke-dasharray="5,2" d="M351.989,-190.872C374.045,-178.51 405.812,-160.704 432.424,-145.788"/>
<polygon fill="black" stroke="black" points="434.218,-148.794 441.23,-140.852 430.796,-142.688 434.218,-148.794"/>
</g>
<!-- n_rate_mean_inverse -->
<g id="node9" class="node"><title>n_rate_mean_inverse</title>
<ellipse fill="white" stroke="black" stroke-dasharray="5,2" cx="392" cy="-297" rx="100.114" ry="26.7407"/>
<text text-anchor="middle" x="392" y="-300.8" font-family="Times,serif" font-size="14.00">rate_mean_inverse</text>
<text text-anchor="middle" x="392" y="-285.8" font-family="Times,serif" font-size="14.00">[ div(RealPos&lt;any&gt;) ]</text>
</g>
<!-- n_rate_mean_inverse&#45;&gt;n_extinction_1 -->
<g id="edge13" class="edge"><title>n_rate_mean_inverse&#45;&gt;n_extinction_1</title>
<path fill="none" stroke="black" d="M372.621,-270.547C363.602,-258.701 352.912,-244.66 343.947,-232.886"/>
<polygon fill="black" stroke="black" points="346.616,-230.613 337.773,-224.777 341.046,-234.854 346.616,-230.613"/>
</g>
<!-- n_speciation_1 -->
<g id="node12" class="node"><title>n_speciation_1</title>
<ellipse fill="white" stroke="black" cx="594" cy="-207" rx="58.2422" ry="18"/>
<text text-anchor="middle" x="594" y="-203.3" font-family="Times,serif" font-size="14.00">speciation[1]</text>
</g>
<!-- n_rate_mean_inverse&#45;&gt;n_speciation_1 -->
<g id="edge10" class="edge"><title>n_rate_mean_inverse&#45;&gt;n_speciation_1</title>
<path fill="none" stroke="black" d="M442.973,-273.794C476.761,-259.074 520.543,-240.001 552.261,-226.184"/>
<polygon fill="black" stroke="black" points="553.922,-229.277 561.692,-222.075 551.127,-222.86 553.922,-229.277"/>
</g>
<!-- n_speciation_2 -->
<g id="node16" class="node"><title>n_speciation_2</title>
<ellipse fill="white" stroke="black" cx="459" cy="-207" rx="58.2422" ry="18"/>
<text text-anchor="middle" x="459" y="-203.3" font-family="Times,serif" font-size="14.00">speciation[2]</text>
</g>
<!-- n_rate_mean_inverse&#45;&gt;n_speciation_2 -->
<g id="edge11" class="edge"><title>n_rate_mean_inverse&#45;&gt;n_speciation_2</title>
<path fill="none" stroke="black" d="M411.379,-270.547C420.398,-258.701 431.088,-244.66 440.053,-232.886"/>
<polygon fill="black" stroke="black" points="442.954,-234.854 446.227,-224.777 437.384,-230.613 442.954,-234.854"/>
</g>
<!-- n_extinction_2 -->
<g id="node18" class="node"><title>n_extinction_2</title>
<ellipse fill="white" stroke="black" cx="191" cy="-207" rx="57.2688" ry="18"/>
<text text-anchor="middle" x="191" y="-203.3" font-family="Times,serif" font-size="14.00">extinction[2]</text>
</g>
<!-- n_rate_mean_inverse&#45;&gt;n_extinction_2 -->
<g id="edge12" class="edge"><title>n_rate_mean_inverse&#45;&gt;n_extinction_2</title>
<path fill="none" stroke="black" d="M341.279,-273.794C307.658,-259.074 264.093,-240.001 232.533,-226.184"/>
<polygon fill="black" stroke="black" points="233.712,-222.879 223.148,-222.075 230.905,-229.291 233.712,-222.879"/>
</g>
<!-- n_0x7f8614b62690 -->
<g id="node10" class="node"><title>n_0x7f8614b62690</title>
<polygon fill="white" stroke="black" points="376,-402 322,-402 322,-366 376,-366 376,-402"/>
<text text-anchor="middle" x="349" y="-380.3" font-family="Times,serif" font-size="14.00">1</text>
</g>
<!-- n_0x7f8614b62690&#45;&gt;n_rate_mean_inverse -->
<g id="edge14" class="edge"><title>n_0x7f8614b62690&#45;&gt;n_rate_mean_inverse</title>
<path fill="none" stroke="black" stroke-dasharray="5,2" d="M357.702,-365.799C362.456,-356.4 368.524,-344.406 374.23,-333.126"/>
<polygon fill="black" stroke="black" points="377.51,-334.395 378.902,-323.892 371.264,-331.236 377.51,-334.395"/>
</g>
<!-- n_rate_mean -->
<g id="node11" class="node"><title>n_rate_mean</title>
<polygon fill="white" stroke="black" points="394.5,-361 394.5,-407 477.5,-407 477.5,-361 394.5,-361"/>
<text text-anchor="middle" x="436" y="-391.8" font-family="Times,serif" font-size="14.00">rate_mean</text>
<polyline fill="none" stroke="black" points="394.5,-384 477.5,-384 "/>
<text text-anchor="middle" x="436" y="-368.8" font-family="Times,serif" font-size="14.00">0.08007497</text>
</g>
<!-- n_rate_mean&#45;&gt;n_rate_mean_inverse -->
<g id="edge15" class="edge"><title>n_rate_mean&#45;&gt;n_rate_mean_inverse</title>
<path fill="none" stroke="black" stroke-dasharray="5,2" d="M424.44,-360.667C420.047,-352.182 414.933,-342.301 410.081,-332.928"/>
<polygon fill="black" stroke="black" points="413.058,-331.067 405.353,-323.795 406.841,-334.285 413.058,-331.067"/>
</g>
<!-- n_speciation_1&#45;&gt;n_diversification_1 -->
<g id="edge16" class="edge"><title>n_speciation_1&#45;&gt;n_diversification_1</title>
<path fill="none" stroke="black" stroke-dasharray="5,2" d="M573.718,-190.064C559.067,-178.553 538.819,-162.644 521.074,-148.701"/>
<polygon fill="black" stroke="black" points="523.152,-145.882 513.126,-142.456 518.827,-151.387 523.152,-145.882"/>
</g>
<!-- n_speciation -->
<g id="node17" class="node"><title>n_speciation</title>
<ellipse fill="white" stroke="black" stroke-dasharray="5,2" cx="766" cy="-117" rx="92.4462" ry="26.7407"/>
<text text-anchor="middle" x="766" y="-120.8" font-family="Times,serif" font-size="14.00">speciation</text>
<text text-anchor="middle" x="766" y="-105.8" font-family="Times,serif" font-size="14.00">[ v(RealPos&lt;any&gt;) ]</text>
</g>
<!-- n_speciation_1&#45;&gt;n_speciation -->
<g id="edge17" class="edge"><title>n_speciation_1&#45;&gt;n_speciation</title>
<path fill="none" stroke="black" stroke-dasharray="5,2" d="M622.789,-191.271C647.229,-178.766 682.951,-160.49 712.604,-145.319"/>
<polygon fill="black" stroke="black" points="714.284,-148.391 721.592,-140.72 711.096,-142.159 714.284,-148.391"/>
</g>
<!-- n_diversification -->
<g id="node14" class="node"><title>n_diversification</title>
<ellipse fill="white" stroke="black" stroke-dasharray="5,2" cx="386" cy="-27" rx="78.2333" ry="26.7407"/>
<text text-anchor="middle" x="386" y="-30.8" font-family="Times,serif" font-size="14.00">diversification</text>
<text text-anchor="middle" x="386" y="-15.8" font-family="Times,serif" font-size="14.00">[ v(Real&lt;any&gt;) ]</text>
</g>
<!-- n_diversification_1&#45;&gt;n_diversification -->
<g id="edge18" class="edge"><title>n_diversification_1&#45;&gt;n_diversification</title>
<path fill="none" stroke="black" stroke-dasharray="5,2" d="M455.003,-91.2529C444.279,-81.4224 431.813,-69.9948 420.45,-59.5788"/>
<polygon fill="black" stroke="black" points="422.531,-56.7386 412.794,-52.5613 417.801,-61.8987 422.531,-56.7386"/>
</g>
<!-- n_diversification_2 -->
<g id="node15" class="node"><title>n_diversification_2</title>
<ellipse fill="white" stroke="black" stroke-dasharray="5,2" cx="290" cy="-117" rx="86.4614" ry="26.7407"/>
<text text-anchor="middle" x="290" y="-120.8" font-family="Times,serif" font-size="14.00">diversification[2]</text>
<text text-anchor="middle" x="290" y="-105.8" font-family="Times,serif" font-size="14.00">[ sub(Real&lt;any&gt;) ]</text>
</g>
<!-- n_diversification_2&#45;&gt;n_diversification -->
<g id="edge19" class="edge"><title>n_diversification_2&#45;&gt;n_diversification</title>
<path fill="none" stroke="black" stroke-dasharray="5,2" d="M316.997,-91.2529C327.721,-81.4224 340.187,-69.9948 351.55,-59.5788"/>
<polygon fill="black" stroke="black" points="354.199,-61.8987 359.206,-52.5613 349.469,-56.7386 354.199,-61.8987"/>
</g>
<!-- n_speciation_2&#45;&gt;n_diversification_2 -->
<g id="edge21" class="edge"><title>n_speciation_2&#45;&gt;n_diversification_2</title>
<path fill="none" stroke="black" stroke-dasharray="5,2" d="M430.331,-191.072C406.283,-178.55 371.315,-160.341 342.301,-145.234"/>
<polygon fill="black" stroke="black" points="343.598,-141.963 333.112,-140.449 340.365,-148.172 343.598,-141.963"/>
</g>
<!-- n_speciation_2&#45;&gt;n_speciation -->
<g id="edge20" class="edge"><title>n_speciation_2&#45;&gt;n_speciation</title>
<path fill="none" stroke="black" stroke-dasharray="5,2" d="M492.633,-192.29C503.51,-188.086 515.684,-183.619 527,-180 534.953,-177.457 621.787,-155.035 688.519,-137.879"/>
<polygon fill="black" stroke="black" points="689.394,-141.268 698.208,-135.389 687.651,-134.489 689.394,-141.268"/>
</g>
<!-- n_speciation&#45;&gt;n_timetree -->
<g id="edge22" class="edge"><title>n_speciation&#45;&gt;n_timetree</title>
<path fill="none" stroke="black" d="M811.067,-93.3378C840.69,-78.4416 878.875,-59.24 906.17,-45.5146"/>
<polygon fill="black" stroke="black" points="907.977,-48.5237 915.338,-40.9042 904.832,-42.2699 907.977,-48.5237"/>
</g>
<!-- n_extinction_2&#45;&gt;n_extinction -->
<g id="edge24" class="edge"><title>n_extinction_2&#45;&gt;n_extinction</title>
<path fill="none" stroke="black" stroke-dasharray="5,2" d="M172.842,-189.859C160.197,-178.62 142.918,-163.26 127.58,-149.626"/>
<polygon fill="black" stroke="black" points="129.57,-146.713 119.77,-142.685 124.919,-151.944 129.57,-146.713"/>
</g>
<!-- n_extinction_2&#45;&gt;n_diversification_2 -->
<g id="edge23" class="edge"><title>n_extinction_2&#45;&gt;n_diversification_2</title>
<path fill="none" stroke="black" stroke-dasharray="5,2" d="M209.158,-189.859C221.803,-178.62 239.082,-163.26 254.42,-149.626"/>
<polygon fill="black" stroke="black" points="257.081,-151.944 262.23,-142.685 252.43,-146.713 257.081,-151.944"/>
</g>
<!-- n_rate_cat_probs -->
<g id="node19" class="node"><title>n_rate_cat_probs</title>
<ellipse fill="white" stroke="black" cx="941" cy="-117" rx="64.0172" ry="18"/>
<text text-anchor="middle" x="941" y="-113.3" font-family="Times,serif" font-size="14.00">rate_cat_probs</text>
</g>
<!-- n_rate_cat_probs&#45;&gt;n_timetree -->
<g id="edge25" class="edge"><title>n_rate_cat_probs&#45;&gt;n_timetree</title>
<path fill="none" stroke="black" d="M941,-98.614C941,-86.2403 941,-69.3686 941,-55.2198"/>
<polygon fill="black" stroke="black" points="944.5,-55.0504 941,-45.0504 937.5,-55.0504 944.5,-55.0504"/>
</g>
<!-- n_0x7f8614b666a0 -->
<g id="node20" class="node"><title>n_0x7f8614b666a0</title>
<polygon fill="white" stroke="black" points="992.25,-225 889.75,-225 889.75,-189 992.25,-189 992.25,-225"/>
<text text-anchor="middle" x="941" y="-203.3" font-family="Times,serif" font-size="14.00">[ 1.000, 1.000 ]</text>
</g>
<!-- n_0x7f8614b666a0&#45;&gt;n_rate_cat_probs -->
<g id="edge26" class="edge"><title>n_0x7f8614b666a0&#45;&gt;n_rate_cat_probs</title>
<path fill="none" stroke="black" d="M941,-188.614C941,-176.24 941,-159.369 941,-145.22"/>
<polygon fill="black" stroke="black" points="944.5,-145.05 941,-135.05 937.5,-145.05 944.5,-145.05"/>
</g>
<!-- n_sampling -->
<g id="node21" class="node"><title>n_sampling</title>
<polygon fill="white" stroke="black" points="1023,-94 1023,-140 1099,-140 1099,-94 1023,-94"/>
<text text-anchor="middle" x="1061" y="-124.8" font-family="Times,serif" font-size="14.00">sampling</text>
<polyline fill="none" stroke="black" points="1023,-117 1099,-117 "/>
<text text-anchor="middle" x="1061" y="-101.8" font-family="Times,serif" font-size="14.00">0.6348774</text>
</g>
<!-- n_sampling&#45;&gt;n_timetree -->
<g id="edge27" class="edge"><title>n_sampling&#45;&gt;n_timetree</title>
<path fill="none" stroke="black" d="M1030.72,-93.7939C1011.9,-79.9919 987.858,-62.3624 969.4,-48.8268"/>
<polygon fill="black" stroke="black" points="971.228,-45.8267 961.094,-42.7354 967.088,-51.4715 971.228,-45.8267"/>
</g>
<!-- n_timetree_delta -->
<g id="node22" class="node"><title>n_timetree_delta</title>
<polygon fill="white" stroke="black" points="1400.5,-94 1400.5,-140 1493.5,-140 1493.5,-94 1400.5,-94"/>
<text text-anchor="middle" x="1447" y="-124.8" font-family="Times,serif" font-size="14.00">timetree.delta</text>
<polyline fill="none" stroke="black" points="1400.5,-117 1493.5,-117 "/>
<text text-anchor="middle" x="1447" y="-101.8" font-family="Times,serif" font-size="14.00">1</text>
</g>
<!-- n_timetree_delta&#45;&gt;n_timetree -->
<g id="edge28" class="edge"><title>n_timetree_delta&#45;&gt;n_timetree</title>
<path fill="none" stroke="black" d="M1402.53,-93.9271C1398.68,-92.4561 1394.81,-91.1181 1391,-90 1249.73,-48.4884 1075.15,-34.5488 991.002,-30.0441"/>
<polygon fill="black" stroke="black" points="991.12,-26.5456 980.954,-29.5283 990.761,-33.5364 991.12,-26.5456"/>
</g>
<!-- n_root_age -->
<g id="node23" class="node"><title>n_root_age</title>
<polygon fill="white" stroke="black" points="586.5,-94 586.5,-140 655.5,-140 655.5,-94 586.5,-94"/>
<text text-anchor="middle" x="621" y="-124.8" font-family="Times,serif" font-size="14.00">root_age</text>
<polyline fill="none" stroke="black" points="586.5,-117 655.5,-117 "/>
<text text-anchor="middle" x="621" y="-101.8" font-family="Times,serif" font-size="14.00">65.09169</text>
</g>
<!-- n_root_age&#45;&gt;n_timetree -->
<g id="edge29" class="edge"><title>n_root_age&#45;&gt;n_timetree</title>
<path fill="none" stroke="black" d="M655.232,-93.9918C658.141,-92.5264 661.086,-91.1708 664,-90 740.842,-59.1288 836.156,-42.0718 892.583,-33.9949"/>
<polygon fill="black" stroke="black" points="893.233,-37.4383 902.653,-32.59 892.266,-30.5054 893.233,-37.4383"/>
</g>
</g>
</svg>
