<?xml version="1.0" encoding="UTF-8" standalone="no"?>
<!DOCTYPE svg PUBLIC "-//W3C//DTD SVG 1.1//EN"
 "http://www.w3.org/Graphics/SVG/1.1/DTD/svg11.dtd">
<!-- Generated by graphviz version 12.2.1 (20241206.2353)
 -->
<!-- Title: REVDAG Pages: 1 -->
<svg width="1524pt" height="628pt"
 viewBox="0.00 0.00 1523.61 627.91" xmlns="http://www.w3.org/2000/svg" xmlns:xlink="http://www.w3.org/1999/xlink">
<g id="graph0" class="graph" transform="scale(1 1) rotate(0) translate(18 609.91)">
<title>REVDAG</title>
<polygon fill="#eee0e5" stroke="none" points="-18,18 -18,-609.91 1505.61,-609.91 1505.61,18 -18,18"/>
<!-- n_timetree -->
<g id="node1" class="node">
<title>n_timetree</title>
<ellipse fill="gray" stroke="black" cx="935.86" cy="-28.99" rx="41.63" ry="18"/>
<text text-anchor="middle" x="935.86" y="-23.94" font-family="Times,serif" font-size="14.00">timetree</text>
</g>
<!-- n_extinction -->
<g id="node2" class="node">
<title>n_extinction</title>
<ellipse fill="white" stroke="black" stroke-dasharray="5,2" cx="90.86" cy="-122.97" rx="90.86" ry="28.99"/>
<text text-anchor="middle" x="90.86" y="-126.17" font-family="Times,serif" font-size="14.00">extinction</text>
<text text-anchor="middle" x="90.86" y="-109.67" font-family="Times,serif" font-size="14.00">[ v(RealPos&lt;any&gt;) ]</text>
</g>
<!-- n_extinction&#45;&gt;n_timetree -->
<g id="edge1" class="edge">
<title>n_extinction&#45;&gt;n_timetree</title>
<path fill="none" stroke="black" d="M154.88,-101.96C166.44,-98.9 178.44,-96.07 189.86,-93.98 323.55,-69.58 736.5,-42.35 883.36,-33.19"/>
<polygon fill="black" stroke="black" points="883.42,-36.7 893.18,-32.58 882.98,-29.71 883.42,-36.7"/>
</g>
<!-- n_extinction_1 -->
<g id="node3" class="node">
<title>n_extinction_1</title>
<ellipse fill="white" stroke="black" cx="187.86" cy="-216.96" rx="58.52" ry="18"/>
<text text-anchor="middle" x="187.86" y="-211.91" font-family="Times,serif" font-size="14.00">extinction[1]</text>
</g>
<!-- n_extinction_1&#45;&gt;n_extinction -->
<g id="edge3" class="edge">
<title>n_extinction_1&#45;&gt;n_extinction</title>
<path fill="none" stroke="black" stroke-dasharray="5,2" d="M170.52,-199.51C158.48,-188.09 141.98,-172.45 127.13,-158.36"/>
<polygon fill="black" stroke="black" points="129.84,-156.11 120.18,-151.77 125.03,-161.19 129.84,-156.11"/>
</g>
<!-- n_diversification_1 -->
<g id="node6" class="node">
<title>n_diversification_1</title>
<ellipse fill="white" stroke="black" stroke-dasharray="5,2" cx="284.86" cy="-122.97" rx="85.56" ry="28.99"/>
<text text-anchor="middle" x="284.86" y="-126.17" font-family="Times,serif" font-size="14.00">diversification[1]</text>
<text text-anchor="middle" x="284.86" y="-109.67" font-family="Times,serif" font-size="14.00">[ sub(Real&lt;any&gt;) ]</text>
</g>
<!-- n_extinction_1&#45;&gt;n_diversification_1 -->
<g id="edge2" class="edge">
<title>n_extinction_1&#45;&gt;n_diversification_1</title>
<path fill="none" stroke="black" stroke-dasharray="5,2" d="M205.2,-199.51C217.25,-188.09 233.75,-172.45 248.6,-158.36"/>
<polygon fill="black" stroke="black" points="250.7,-161.19 255.55,-151.77 245.88,-156.11 250.7,-161.19"/>
</g>
<!-- n_0x122f4ff00 -->
<g id="node4" class="node">
<title>n_0x122f4ff00</title>
<polygon fill="white" stroke="black" points="178.86,-317.95 124.86,-317.95 124.86,-281.95 178.86,-281.95 178.86,-317.95"/>
<text text-anchor="middle" x="151.86" y="-294.9" font-family="Times,serif" font-size="14.00">1e&#45;06</text>
</g>
<!-- n_0x122f4ff00&#45;&gt;n_extinction_1 -->
<g id="edge4" class="edge">
<title>n_0x122f4ff00&#45;&gt;n_extinction_1</title>
<path fill="none" stroke="black" d="M159.5,-281.77C164.18,-271.25 170.27,-257.54 175.61,-245.52"/>
<polygon fill="black" stroke="black" points="178.76,-247.05 179.62,-236.49 172.36,-244.21 178.76,-247.05"/>
</g>
<!-- n_0x122f50010 -->
<g id="node5" class="node">
<title>n_0x122f50010</title>
<polygon fill="white" stroke="black" points="250.86,-317.95 196.86,-317.95 196.86,-281.95 250.86,-281.95 250.86,-317.95"/>
<text text-anchor="middle" x="223.86" y="-294.9" font-family="Times,serif" font-size="14.00">100</text>
</g>
<!-- n_0x122f50010&#45;&gt;n_extinction_1 -->
<g id="edge5" class="edge">
<title>n_0x122f50010&#45;&gt;n_extinction_1</title>
<path fill="none" stroke="black" d="M216.23,-281.77C211.55,-271.25 205.46,-257.54 200.12,-245.52"/>
<polygon fill="black" stroke="black" points="203.36,-244.21 196.1,-236.49 196.97,-247.05 203.36,-244.21"/>
</g>
<!-- n_diversification -->
<g id="node18" class="node">
<title>n_diversification</title>
<ellipse fill="white" stroke="black" stroke-dasharray="5,2" cx="379.86" cy="-28.99" rx="77.07" ry="28.99"/>
<text text-anchor="middle" x="379.86" y="-32.19" font-family="Times,serif" font-size="14.00">diversification</text>
<text text-anchor="middle" x="379.86" y="-15.69" font-family="Times,serif" font-size="14.00">[ v(Real&lt;any&gt;) ]</text>
</g>
<!-- n_diversification_1&#45;&gt;n_diversification -->
<g id="edge6" class="edge">
<title>n_diversification_1&#45;&gt;n_diversification</title>
<path fill="none" stroke="black" stroke-dasharray="5,2" d="M312.6,-95.12C322.54,-85.5 333.88,-74.51 344.39,-64.34"/>
<polygon fill="black" stroke="black" points="346.75,-66.92 351.5,-57.45 341.88,-61.9 346.75,-66.92"/>
</g>
<!-- n_speciation_1 -->
<g id="node7" class="node">
<title>n_speciation_1</title>
<ellipse fill="white" stroke="black" cx="526.86" cy="-216.96" rx="59.03" ry="18"/>
<text text-anchor="middle" x="526.86" y="-211.91" font-family="Times,serif" font-size="14.00">speciation[1]</text>
</g>
<!-- n_speciation_1&#45;&gt;n_diversification_1 -->
<g id="edge8" class="edge">
<title>n_speciation_1&#45;&gt;n_diversification_1</title>
<path fill="none" stroke="black" stroke-dasharray="5,2" d="M490.89,-202.29C454.2,-188.34 396.42,-166.38 351.37,-149.25"/>
<polygon fill="black" stroke="black" points="352.81,-146.06 342.22,-145.77 350.32,-152.6 352.81,-146.06"/>
</g>
<!-- n_speciation -->
<g id="node10" class="node">
<title>n_speciation</title>
<ellipse fill="white" stroke="black" stroke-dasharray="5,2" cx="759.86" cy="-122.97" rx="90.86" ry="28.99"/>
<text text-anchor="middle" x="759.86" y="-126.17" font-family="Times,serif" font-size="14.00">speciation</text>
<text text-anchor="middle" x="759.86" y="-109.67" font-family="Times,serif" font-size="14.00">[ v(RealPos&lt;any&gt;) ]</text>
</g>
<!-- n_speciation_1&#45;&gt;n_speciation -->
<g id="edge7" class="edge">
<title>n_speciation_1&#45;&gt;n_speciation</title>
<path fill="none" stroke="black" stroke-dasharray="5,2" d="M562,-202.09C596.57,-188.44 650.24,-167.25 692.97,-150.38"/>
<polygon fill="black" stroke="black" points="694.15,-153.68 702.17,-146.75 691.58,-147.17 694.15,-153.68"/>
</g>
<!-- n_0x122f503a0 -->
<g id="node8" class="node">
<title>n_0x122f503a0</title>
<polygon fill="white" stroke="black" points="540.86,-317.95 486.86,-317.95 486.86,-281.95 540.86,-281.95 540.86,-317.95"/>
<text text-anchor="middle" x="513.86" y="-294.9" font-family="Times,serif" font-size="14.00">1e&#45;06</text>
</g>
<!-- n_0x122f503a0&#45;&gt;n_speciation_1 -->
<g id="edge9" class="edge">
<title>n_0x122f503a0&#45;&gt;n_speciation_1</title>
<path fill="none" stroke="black" d="M516.62,-281.77C518.26,-271.53 520.39,-258.28 522.28,-246.5"/>
<polygon fill="black" stroke="black" points="525.7,-247.31 523.83,-236.88 518.78,-246.2 525.7,-247.31"/>
</g>
<!-- n_0x122f504b0 -->
<g id="node9" class="node">
<title>n_0x122f504b0</title>
<polygon fill="white" stroke="black" points="612.86,-317.95 558.86,-317.95 558.86,-281.95 612.86,-281.95 612.86,-317.95"/>
<text text-anchor="middle" x="585.86" y="-294.9" font-family="Times,serif" font-size="14.00">100</text>
</g>
<!-- n_0x122f504b0&#45;&gt;n_speciation_1 -->
<g id="edge10" class="edge">
<title>n_0x122f504b0&#45;&gt;n_speciation_1</title>
<path fill="none" stroke="black" d="M573.35,-281.77C565.32,-270.75 554.74,-256.22 545.7,-243.81"/>
<polygon fill="black" stroke="black" points="548.76,-242.08 540.05,-236.05 543.11,-246.2 548.76,-242.08"/>
</g>
<!-- n_speciation&#45;&gt;n_timetree -->
<g id="edge11" class="edge">
<title>n_speciation&#45;&gt;n_timetree</title>
<path fill="none" stroke="black" d="M806.11,-97.81C835.55,-82.42 873.1,-62.79 900.23,-48.61"/>
<polygon fill="black" stroke="black" points="901.49,-51.9 908.74,-44.17 898.25,-45.7 901.49,-51.9"/>
</g>
<!-- n_speciation_2 -->
<g id="node11" class="node">
<title>n_speciation_2</title>
<ellipse fill="white" stroke="black" cx="685.86" cy="-216.96" rx="59.03" ry="18"/>
<text text-anchor="middle" x="685.86" y="-211.91" font-family="Times,serif" font-size="14.00">speciation[2]</text>
</g>
<!-- n_speciation_2&#45;&gt;n_speciation -->
<g id="edge13" class="edge">
<title>n_speciation_2&#45;&gt;n_speciation</title>
<path fill="none" stroke="black" stroke-dasharray="5,2" d="M699.44,-199.09C708.2,-188.19 719.94,-173.6 730.74,-160.18"/>
<polygon fill="black" stroke="black" points="733.17,-162.74 736.71,-152.75 727.72,-158.35 733.17,-162.74"/>
</g>
<!-- n_diversification_2 -->
<g id="node14" class="node">
<title>n_diversification_2</title>
<ellipse fill="white" stroke="black" stroke-dasharray="5,2" cx="473.86" cy="-122.97" rx="85.56" ry="28.99"/>
<text text-anchor="middle" x="473.86" y="-126.17" font-family="Times,serif" font-size="14.00">diversification[2]</text>
<text text-anchor="middle" x="473.86" y="-109.67" font-family="Times,serif" font-size="14.00">[ sub(Real&lt;any&gt;) ]</text>
</g>
<!-- n_speciation_2&#45;&gt;n_diversification_2 -->
<g id="edge12" class="edge">
<title>n_speciation_2&#45;&gt;n_diversification_2</title>
<path fill="none" stroke="black" stroke-dasharray="5,2" d="M653.2,-201.79C622.1,-188.29 574.46,-167.62 536.1,-150.98"/>
<polygon fill="black" stroke="black" points="537.5,-147.77 526.94,-147 534.72,-154.19 537.5,-147.77"/>
</g>
<!-- n_0x122f50840 -->
<g id="node12" class="node">
<title>n_0x122f50840</title>
<polygon fill="white" stroke="black" points="703.86,-317.95 649.86,-317.95 649.86,-281.95 703.86,-281.95 703.86,-317.95"/>
<text text-anchor="middle" x="676.86" y="-294.9" font-family="Times,serif" font-size="14.00">1e&#45;06</text>
</g>
<!-- n_0x122f50840&#45;&gt;n_speciation_2 -->
<g id="edge14" class="edge">
<title>n_0x122f50840&#45;&gt;n_speciation_2</title>
<path fill="none" stroke="black" d="M678.77,-281.77C679.91,-271.53 681.38,-258.28 682.69,-246.5"/>
<polygon fill="black" stroke="black" points="686.13,-247.22 683.76,-236.89 679.18,-246.44 686.13,-247.22"/>
</g>
<!-- n_0x122f50950 -->
<g id="node13" class="node">
<title>n_0x122f50950</title>
<polygon fill="white" stroke="black" points="775.86,-317.95 721.86,-317.95 721.86,-281.95 775.86,-281.95 775.86,-317.95"/>
<text text-anchor="middle" x="748.86" y="-294.9" font-family="Times,serif" font-size="14.00">100</text>
</g>
<!-- n_0x122f50950&#45;&gt;n_speciation_2 -->
<g id="edge15" class="edge">
<title>n_0x122f50950&#45;&gt;n_speciation_2</title>
<path fill="none" stroke="black" d="M735.5,-281.77C726.93,-270.75 715.63,-256.22 705.98,-243.81"/>
<polygon fill="black" stroke="black" points="708.82,-241.77 699.92,-236.03 703.3,-246.07 708.82,-241.77"/>
</g>
<!-- n_diversification_2&#45;&gt;n_diversification -->
<g id="edge16" class="edge">
<title>n_diversification_2&#45;&gt;n_diversification</title>
<path fill="none" stroke="black" stroke-dasharray="5,2" d="M446.42,-95.12C436.59,-85.5 425.36,-74.51 414.97,-64.34"/>
<polygon fill="black" stroke="black" points="417.53,-61.95 407.93,-57.46 412.63,-66.96 417.53,-61.95"/>
</g>
<!-- n_extinction_2 -->
<g id="node15" class="node">
<title>n_extinction_2</title>
<ellipse fill="white" stroke="black" cx="361.86" cy="-216.96" rx="58.52" ry="18"/>
<text text-anchor="middle" x="361.86" y="-211.91" font-family="Times,serif" font-size="14.00">extinction[2]</text>
</g>
<!-- n_extinction_2&#45;&gt;n_extinction -->
<g id="edge18" class="edge">
<title>n_extinction_2&#45;&gt;n_extinction</title>
<path fill="none" stroke="black" stroke-dasharray="5,2" d="M323.61,-202.97C282,-188.85 214.52,-165.95 162.91,-148.43"/>
<polygon fill="black" stroke="black" points="164.18,-145.16 153.59,-145.26 161.93,-151.79 164.18,-145.16"/>
</g>
<!-- n_extinction_2&#45;&gt;n_diversification_2 -->
<g id="edge17" class="edge">
<title>n_extinction_2&#45;&gt;n_diversification_2</title>
<path fill="none" stroke="black" stroke-dasharray="5,2" d="M381.63,-199.72C395.98,-187.93 415.91,-171.57 433.56,-157.07"/>
<polygon fill="black" stroke="black" points="435.34,-160.14 440.85,-151.09 430.9,-154.73 435.34,-160.14"/>
</g>
<!-- n_0x122f50ce0 -->
<g id="node16" class="node">
<title>n_0x122f50ce0</title>
<polygon fill="white" stroke="black" points="359.86,-317.95 305.86,-317.95 305.86,-281.95 359.86,-281.95 359.86,-317.95"/>
<text text-anchor="middle" x="332.86" y="-294.9" font-family="Times,serif" font-size="14.00">1e&#45;06</text>
</g>
<!-- n_0x122f50ce0&#45;&gt;n_extinction_2 -->
<g id="edge19" class="edge">
<title>n_0x122f50ce0&#45;&gt;n_extinction_2</title>
<path fill="none" stroke="black" d="M339.01,-281.77C342.74,-271.36 347.59,-257.82 351.86,-245.89"/>
<polygon fill="black" stroke="black" points="355.14,-247.13 355.21,-236.53 348.55,-244.77 355.14,-247.13"/>
</g>
<!-- n_0x122f50df0 -->
<g id="node17" class="node">
<title>n_0x122f50df0</title>
<polygon fill="white" stroke="black" points="431.86,-317.95 377.86,-317.95 377.86,-281.95 431.86,-281.95 431.86,-317.95"/>
<text text-anchor="middle" x="404.86" y="-294.9" font-family="Times,serif" font-size="14.00">100</text>
</g>
<!-- n_0x122f50df0&#45;&gt;n_extinction_2 -->
<g id="edge20" class="edge">
<title>n_0x122f50df0&#45;&gt;n_extinction_2</title>
<path fill="none" stroke="black" d="M395.74,-281.77C390.1,-271.14 382.73,-257.26 376.3,-245.16"/>
<polygon fill="black" stroke="black" points="379.46,-243.64 371.68,-236.45 373.28,-246.92 379.46,-243.64"/>
</g>
<!-- n_root_state_freq -->
<g id="node19" class="node">
<title>n_root_state_freq</title>
<ellipse fill="white" stroke="black" cx="935.86" cy="-122.97" rx="66.71" ry="18"/>
<text text-anchor="middle" x="935.86" y="-117.92" font-family="Times,serif" font-size="14.00">root_state_freq</text>
</g>
<!-- n_root_state_freq&#45;&gt;n_timetree -->
<g id="edge21" class="edge">
<title>n_root_state_freq&#45;&gt;n_timetree</title>
<path fill="none" stroke="black" d="M935.86,-104.67C935.86,-91.7 935.86,-73.65 935.86,-58.54"/>
<polygon fill="black" stroke="black" points="939.36,-58.73 935.86,-48.73 932.36,-58.73 939.36,-58.73"/>
</g>
<!-- n_0x122f51180 -->
<g id="node20" class="node">
<title>n_0x122f51180</title>
<polygon fill="white" stroke="black" points="986.61,-234.96 885.11,-234.96 885.11,-198.96 986.61,-198.96 986.61,-234.96"/>
<text text-anchor="middle" x="935.86" y="-211.91" font-family="Times,serif" font-size="14.00">[ 1.000, 1.000 ]</text>
</g>
<!-- n_0x122f51180&#45;&gt;n_root_state_freq -->
<g id="edge22" class="edge">
<title>n_0x122f51180&#45;&gt;n_root_state_freq</title>
<path fill="none" stroke="black" d="M935.86,-198.66C935.86,-185.68 935.86,-167.63 935.86,-152.53"/>
<polygon fill="black" stroke="black" points="939.36,-152.71 935.86,-142.71 932.36,-152.71 939.36,-152.71"/>
</g>
<!-- n_rate_matrix -->
<g id="node21" class="node">
<title>n_rate_matrix</title>
<ellipse fill="white" stroke="black" stroke-dasharray="5,2" cx="1222.86" cy="-122.97" rx="129.58" ry="28.99"/>
<text text-anchor="middle" x="1222.86" y="-126.17" font-family="Times,serif" font-size="14.00">rate_matrix</text>
<text text-anchor="middle" x="1222.86" y="-109.67" font-family="Times,serif" font-size="14.00">[ fnFreeBinary(Real[]&lt;any&gt;) ]</text>
</g>
<!-- n_rate_matrix&#45;&gt;n_timetree -->
<g id="edge23" class="edge">
<title>n_rate_matrix&#45;&gt;n_timetree</title>
<path fill="none" stroke="black" d="M1150.07,-98.64C1096.18,-81.37 1024.56,-58.42 979.32,-43.92"/>
<polygon fill="black" stroke="black" points="980.45,-40.61 969.86,-40.89 978.32,-47.27 980.45,-40.61"/>
</g>
<!-- n_transition_rates -->
<g id="node22" class="node">
<title>n_transition_rates</title>
<ellipse fill="white" stroke="black" stroke-dasharray="5,2" cx="1222.86" cy="-216.96" rx="90.86" ry="28.99"/>
<text text-anchor="middle" x="1222.86" y="-220.16" font-family="Times,serif" font-size="14.00">transition_rates</text>
<text text-anchor="middle" x="1222.86" y="-203.66" font-family="Times,serif" font-size="14.00">[ v(RealPos&lt;any&gt;) ]</text>
</g>
<!-- n_transition_rates&#45;&gt;n_rate_matrix -->
<g id="edge24" class="edge">
<title>n_transition_rates&#45;&gt;n_rate_matrix</title>
<path fill="none" stroke="black" stroke-dasharray="5,2" d="M1222.86,-187.61C1222.86,-180.09 1222.86,-171.83 1222.86,-163.82"/>
<polygon fill="black" stroke="black" points="1226.36,-163.9 1222.86,-153.9 1219.36,-163.9 1226.36,-163.9"/>
</g>
<!-- n_transition_rates_1 -->
<g id="node23" class="node">
<title>n_transition_rates_1</title>
<ellipse fill="white" stroke="black" cx="1134.86" cy="-299.95" rx="78.48" ry="18"/>
<text text-anchor="middle" x="1134.86" y="-294.9" font-family="Times,serif" font-size="14.00">transition_rates[1]</text>
</g>
<!-- n_transition_rates_1&#45;&gt;n_transition_rates -->
<g id="edge25" class="edge">
<title>n_transition_rates_1&#45;&gt;n_transition_rates</title>
<path fill="none" stroke="black" stroke-dasharray="5,2" d="M1153.1,-282.17C1162.48,-273.53 1174.29,-262.66 1185.5,-252.34"/>
<polygon fill="black" stroke="black" points="1187.81,-254.97 1192.8,-245.63 1183.07,-249.82 1187.81,-254.97"/>
</g>
<!-- n_rate_pr -->
<g id="node24" class="node">
<title>n_rate_pr</title>
<ellipse fill="white" stroke="black" stroke-dasharray="5,2" cx="1221.86" cy="-382.94" rx="98.29" ry="28.99"/>
<text text-anchor="middle" x="1221.86" y="-386.14" font-family="Times,serif" font-size="14.00">rate_pr</text>
<text text-anchor="middle" x="1221.86" y="-369.64" font-family="Times,serif" font-size="14.00">[ div(RealPos&lt;any&gt;) ]</text>
</g>
<!-- n_rate_pr&#45;&gt;n_transition_rates_1 -->
<g id="edge27" class="edge">
<title>n_rate_pr&#45;&gt;n_transition_rates_1</title>
<path fill="none" stroke="black" d="M1192.89,-354.97C1182.72,-345.5 1171.36,-334.92 1161.4,-325.65"/>
<polygon fill="black" stroke="black" points="1163.89,-323.18 1154.18,-318.93 1159.12,-328.31 1163.89,-323.18"/>
</g>
<!-- n_transition_rates_2 -->
<g id="node28" class="node">
<title>n_transition_rates_2</title>
<ellipse fill="white" stroke="black" cx="1309.86" cy="-299.95" rx="78.48" ry="18"/>
<text text-anchor="middle" x="1309.86" y="-294.9" font-family="Times,serif" font-size="14.00">transition_rates[2]</text>
</g>
<!-- n_rate_pr&#45;&gt;n_transition_rates_2 -->
<g id="edge26" class="edge">
<title>n_rate_pr&#45;&gt;n_transition_rates_2</title>
<path fill="none" stroke="black" d="M1251.17,-354.97C1261.45,-345.5 1272.95,-334.92 1283.02,-325.65"/>
<polygon fill="black" stroke="black" points="1285.34,-328.27 1290.33,-318.93 1280.6,-323.12 1285.34,-328.27"/>
</g>
<!-- n_0x122f518a0 -->
<g id="node25" class="node">
<title>n_0x122f518a0</title>
<ellipse fill="white" stroke="black" stroke-dasharray="5,2" cx="1161.86" cy="-476.92" rx="73.89" ry="28.99"/>
<text text-anchor="middle" x="1161.86" y="-480.12" font-family="Times,serif" font-size="14.00">function</text>
<text text-anchor="middle" x="1161.86" y="-463.62" font-family="Times,serif" font-size="14.00">[ treeLength()) ]</text>
</g>
<!-- n_0x122f518a0&#45;&gt;n_rate_pr -->
<g id="edge28" class="edge">
<title>n_0x122f518a0&#45;&gt;n_rate_pr</title>
<path fill="none" stroke="black" stroke-dasharray="5,2" d="M1179.87,-448.32C1185.39,-439.85 1191.57,-430.38 1197.45,-421.37"/>
<polygon fill="black" stroke="black" points="1200.31,-423.39 1202.84,-413.1 1194.44,-419.57 1200.31,-423.39"/>
</g>
<!-- n_observed_phylogeny -->
<g id="node26" class="node">
<title>n_observed_phylogeny</title>
<polygon fill="white" stroke="black" points="1097.61,-542.41 1097.61,-591.41 1226.11,-591.41 1226.11,-542.41 1097.61,-542.41"/>
<text text-anchor="middle" x="1161.86" y="-574.11" font-family="Times,serif" font-size="14.00">observed_phylogeny</text>
<polyline fill="none" stroke="black" points="1097.61,-566.91 1226.11,-566.91"/>
<text text-anchor="middle" x="1161.86" y="-549.61" font-family="Times,serif" font-size="14.00">...</text>
</g>
<!-- n_observed_phylogeny&#45;&gt;n_0x122f518a0 -->
<g id="edge29" class="edge">
<title>n_observed_phylogeny&#45;&gt;n_0x122f518a0</title>
<path fill="none" stroke="black" stroke-dasharray="5,2" d="M1161.86,-542.33C1161.86,-534.7 1161.86,-526.02 1161.86,-517.56"/>
<polygon fill="black" stroke="black" points="1165.36,-517.78 1161.86,-507.78 1158.36,-517.78 1165.36,-517.78"/>
</g>
<!-- n_0x122f935d0 -->
<g id="node27" class="node">
<title>n_0x122f935d0</title>
<polygon fill="white" stroke="black" points="1307.86,-494.92 1253.86,-494.92 1253.86,-458.92 1307.86,-458.92 1307.86,-494.92"/>
<text text-anchor="middle" x="1280.86" y="-471.87" font-family="Times,serif" font-size="14.00">10</text>
</g>
<!-- n_0x122f935d0&#45;&gt;n_rate_pr -->
<g id="edge30" class="edge">
<title>n_0x122f935d0&#45;&gt;n_rate_pr</title>
<path fill="none" stroke="black" stroke-dasharray="5,2" d="M1269.77,-458.62C1263.01,-448.09 1254.11,-434.21 1245.81,-421.28"/>
<polygon fill="black" stroke="black" points="1248.8,-419.45 1240.45,-412.92 1242.91,-423.23 1248.8,-419.45"/>
</g>
<!-- n_transition_rates_2&#45;&gt;n_transition_rates -->
<g id="edge31" class="edge">
<title>n_transition_rates_2&#45;&gt;n_transition_rates</title>
<path fill="none" stroke="black" stroke-dasharray="5,2" d="M1291.84,-282.17C1282.64,-273.6 1271.09,-262.85 1260.08,-252.61"/>
<polygon fill="black" stroke="black" points="1262.64,-250.2 1252.93,-245.95 1257.87,-255.33 1262.64,-250.2"/>
</g>
<!-- n_transition_rates_2_offset -->
<g id="node29" class="node">
<title>n_transition_rates_2_offset</title>
<polygon fill="white" stroke="black" points="1338.11,-358.44 1338.11,-407.44 1487.61,-407.44 1487.61,-358.44 1338.11,-358.44"/>
<text text-anchor="middle" x="1412.86" y="-390.14" font-family="Times,serif" font-size="14.00">transition_rates[2].offset</text>
<polyline fill="none" stroke="black" points="1338.11,-382.94 1487.61,-382.94"/>
<text text-anchor="middle" x="1412.86" y="-365.64" font-family="Times,serif" font-size="14.00">0</text>
</g>
<!-- n_transition_rates_2_offset&#45;&gt;n_transition_rates_2 -->
<g id="edge32" class="edge">
<title>n_transition_rates_2_offset&#45;&gt;n_transition_rates_2</title>
<path fill="none" stroke="black" d="M1382.52,-358.08C1369.11,-347.54 1353.4,-335.18 1340.01,-324.66"/>
<polygon fill="black" stroke="black" points="1342.4,-322.08 1332.37,-318.65 1338.07,-327.58 1342.4,-322.08"/>
</g>
<!-- n_transition_rates_1_offset -->
<g id="node30" class="node">
<title>n_transition_rates_1_offset</title>
<polygon fill="white" stroke="black" points="956.11,-358.44 956.11,-407.44 1105.61,-407.44 1105.61,-358.44 956.11,-358.44"/>
<text text-anchor="middle" x="1030.86" y="-390.14" font-family="Times,serif" font-size="14.00">transition_rates[1].offset</text>
<polyline fill="none" stroke="black" points="956.11,-382.94 1105.61,-382.94"/>
<text text-anchor="middle" x="1030.86" y="-365.64" font-family="Times,serif" font-size="14.00">0</text>
</g>
<!-- n_transition_rates_1_offset&#45;&gt;n_transition_rates_1 -->
<g id="edge33" class="edge">
<title>n_transition_rates_1_offset&#45;&gt;n_transition_rates_1</title>
<path fill="none" stroke="black" d="M1061.5,-358.08C1075.04,-347.54 1090.91,-335.18 1104.42,-324.66"/>
<polygon fill="black" stroke="black" points="1106.4,-327.55 1112.14,-318.64 1102.1,-322.02 1106.4,-327.55"/>
</g>
<!-- n_0x122f93b40 -->
<g id="node31" class="node">
<title>n_0x122f93b40</title>
<polygon fill="white" stroke="black" points="1074.86,-140.97 1020.86,-140.97 1020.86,-104.97 1074.86,-104.97 1074.86,-140.97"/>
<text text-anchor="middle" x="1047.86" y="-117.92" font-family="Times,serif" font-size="14.00">1</text>
</g>
<!-- n_0x122f93b40&#45;&gt;n_timetree -->
<g id="edge34" class="edge">
<title>n_0x122f93b40&#45;&gt;n_timetree</title>
<path fill="none" stroke="black" d="M1026.8,-104.67C1008.85,-89.94 982.95,-68.66 963.37,-52.58"/>
<polygon fill="black" stroke="black" points="965.72,-49.98 955.77,-46.34 961.28,-55.39 965.72,-49.98"/>
</g>
<!-- n_root_age -->
<g id="node32" class="node">
<title>n_root_age</title>
<polygon fill="white" stroke="black" points="1370.36,-98.47 1370.36,-147.47 1437.36,-147.47 1437.36,-98.47 1370.36,-98.47"/>
<text text-anchor="middle" x="1403.86" y="-130.17" font-family="Times,serif" font-size="14.00">root_age</text>
<polyline fill="none" stroke="black" points="1370.36,-122.97 1437.36,-122.97"/>
<text text-anchor="middle" x="1403.86" y="-105.67" font-family="Times,serif" font-size="14.00">65.09169</text>
</g>
<!-- n_root_age&#45;&gt;n_timetree -->
<g id="edge35" class="edge">
<title>n_root_age&#45;&gt;n_timetree</title>
<path fill="none" stroke="black" d="M1370.64,-98.01C1367.75,-96.49 1364.81,-95.12 1361.86,-93.98 1234.22,-44.7 1071.45,-33.17 988.95,-30.61"/>
<polygon fill="black" stroke="black" points="989.22,-27.12 979.13,-30.34 989.03,-34.11 989.22,-27.12"/>
</g>
<!-- n_sampling -->
<g id="node33" class="node">
<title>n_sampling</title>
<polygon fill="white" stroke="black" points="576.99,-98.47 576.99,-147.47 650.74,-147.47 650.74,-98.47 576.99,-98.47"/>
<text text-anchor="middle" x="613.86" y="-130.17" font-family="Times,serif" font-size="14.00">sampling</text>
<polyline fill="none" stroke="black" points="576.99,-122.97 650.74,-122.97"/>
<text text-anchor="middle" x="613.86" y="-105.67" font-family="Times,serif" font-size="14.00">0.6348774</text>
</g>
<!-- n_sampling&#45;&gt;n_timetree -->
<g id="edge36" class="edge">
<title>n_sampling&#45;&gt;n_timetree</title>
<path fill="none" stroke="black" d="M651,-98.04C653.95,-96.56 656.92,-95.18 659.86,-93.98 735.28,-63.22 828.61,-45.48 885.13,-36.79"/>
<polygon fill="black" stroke="black" points="885.4,-40.29 894.77,-35.34 884.36,-33.36 885.4,-40.29"/>
</g>
</g>
</svg>
