<?xml version="1.0" encoding="UTF-8"?>
<svg xmlns="http://www.w3.org/2000/svg" xmlns:xlink="http://www.w3.org/1999/xlink" width="759pt" height="758pt" viewBox="0 0 759 758" version="1.1"><!--latexit:AAANfnjarVdvbFtXFb+3y9a+G3d12/3puj99IU5JNye1naROKS5t12Uba7MxJ2na
2A3X713bt3n/9N51U/fJ0tUQ4wPTNBBC0zRgzaRpG9PKgE1oAgFC04QmELQTaF+2
TxOf4ANfEEJInPcnJrYTlGrYevJ959/vnHPPufe44hjcE5nMh3jLTX0337J8aT51
kbket635lF25wDThnU1RV6tzIM+khO3sQvjpl64mB7ZuG/jcYGpo/+eHD9z/QHby
cOH4w49MP35mvrSo6XXD9sRsymoYxnWF9CfuUM9MF0eXWNM7B7+x3bmUZlDPe237
rTuSO3ftvu12uUXeJPvkzfIWuVVuk4okr9255669d99z7337ZL9MyFvlDrlT7pV3
y3vlfVKdr1CPGdxis5pt2O6MaetsVnBhsHnHZdSsGKxs0prFq1yjAkKa0algi8kd
Faot1Vy7YekPBornPLvhamyGXRKDKP5cT4/0jx7MzE4Xn3z4RGm6GAoWHaqxqYwK
X5TEcvu13Nj4xLkoDIuabD5aMu9MrLByKL+6nJ8uPh7Gney71v+FI188C4nwhMut
mkw+AYaOfgkcmy6ebggKfhdDzstHj+VBL3q5fqL/wZMPTbXfwanjAlaVhmCe3CXv
krsXd279dEhdjZ2Qkm5rDZNZInRrIZtxRNmnruCawVqk1PAYBLREa2zBoQ5zl7ku
6oXxDLfSakioM16ri5BS9mvMNplwm52KsAwi98p+uActdQgoulq1XXgsoYbUtRo+
NT2vaVZA0qSi7nXzAuJ6vIWGqE6WfW45EK+lRUDVhqEKWxVNh6k6dyG7RhMWVHM5
BKlqdepSTUA9EzI0NKQWqeWpHnN5VRWw2aGHHRieRg2ml/06My4yAZG6zGLLmm2a
1NLvL1WpyY2mzqq0YQi/5FXjZWutjZls2Q8MB04GqKQjQm8JeqIjhb7gS5cjSrAy
eMWlbtN3bI8HNQs73cukrmsve730Khe9RIhJW8dEQ9iQZNrL0Zlmu2G/eKMmdZfA
A+9/SzmwWS5zDKqF3pJSIAji/tGCAR13qRVTRNOADFjQpq3CQgXEl9K6S5cL0TLo
ZDWqwbHRCUekvToUYUHjLpRrusoNo7Bc54KlTW5xs2GqHr/MCtkx0yyvtW9XPgNA
KDiQywxsBklnYhNQ2RBKZxacVVCcthBM31xok114GuR684gRRNAT1KrdAAowtU2A
ZEbzN4LSnbuKEWNEshsEsvEedW2NaaaDniuUPGh9RwTENLcs5kK7O4GdDvCmsZks
rgveZIZhL38mdEFdG7BHjvYWZHhaRq50qtS5ta5avAsb6enrKuVAQ+0qyI0seHCp
thOlrsmU2m1wzc6r3VWhhpct3AtwZkBavLTamcAMZLBNim1mevr6xlzpauX/l0/r
+wlXLauCF2Eafa+utXyYG1p+bmwyncuNw3O41SOTi4Wyk7l0dgKewxNdQhXXEquW
ctl0dgyExuCADYaqRx87feXL8rYrp+Ttcs/cdHEKKvDDJ77yZH9xZnYO3osQBQwL
1SmD1jx4n4ZrevDYcDTeJJPyDnnn3GnbopoN08fZc7GFlYV8vAJq+TwMGSe5Fpzy
cOavlPNA/CpdTO5aM3vo0TiyUsmvSx88diKCvMb6q7VgDBQcHDn+q/0fvf3D/Vfl
PWCSXwDMk3BTrCzl41Uwf5kHM1NZFb5Ibg+mH+ehKbkvmnOwKFVYjVvh5emAhw03
mGiCtlYXohugrA5bmQMqFepwNg0Lv3WkVyAbCYxvKJCLBPJtAc22XZ1b4KI6bHI9
E1tIBWADmdGJgcBo6kDblLdqaWJVMNJ6YDiTHgPBtbBt2UNto5HgobZgUPbqQtDW
sc2RkTDODVnZXtahmDWxMSsXsJild+YXtqpxcTG5uz2m/rc2Xm6U8+EA+xhrMv14
/Ifhj83LM65tC4nRNrQT7UWDaATlUB4tIIrqyEE+ego9g55Fz6Fvo++g76Ln0Qvo
RfR99Cp6Hb2B3kQ/Qj9GP0XvoJ+hd9HP0XvoA/QH9Cf0Cfor+jvuwzvwHrwPD+Ec
PoyP4AI+gU/jOXweU8yxiwVu4q/hr+On8Tfx9/AV/Dp+C7+L38e/xR/g3ynvKL9Q
fqn8WvmN8p7yvvJ75c/Kx8pflL8p/1D+qfxL+TfpIwpJkt1kL9lH0uQgGSePklOE
kgvEJstEkqfIN8iz5FvkefID8gp5lVwlb5GfkLcTI4lc4pHEqcT5BE1Uo8rfguM/
FT7q+CTq/wHoQae1
-->
<g id="surface1">
<path style=" stroke:none;fill-rule:nonzero;fill:rgb(80.076599%,80.076599%,80.076599%);fill-opacity:1;" d="M 139.757812 685.386719 C 139.757812 648.738281 110.058594 619.039062 73.410156 619.039062 C 36.796875 619.039062 7.097656 648.738281 7.097656 685.386719 C 7.097656 721.996094 36.796875 751.699219 73.410156 751.699219 C 110.058594 751.699219 139.757812 721.996094 139.757812 685.386719 Z M 139.757812 685.386719 "/>
<path style="fill:none;stroke-width:34.8697;stroke-linecap:butt;stroke-linejoin:miter;stroke:rgb(0%,0%,0%);stroke-opacity:1;stroke-miterlimit:10;" d="M 13733.896701 23232.195226 C 13733.896701 23333.996441 13651.398872 23416.505122 13549.597656 23416.505122 C 13447.904948 23416.505122 13365.396267 23333.996441 13365.396267 23232.195226 C 13365.396267 23130.502517 13447.904948 23048.004687 13549.597656 23048.004687 C 13651.398872 23048.004687 13733.896701 23130.502517 13733.896701 23232.195226 Z M 13733.896701 23232.195226 " transform="matrix(0.36,0,0,-0.36,-4804.445,9048.977)"/>
<path style=" stroke:none;fill-rule:nonzero;fill:rgb(80.076599%,80.076599%,80.076599%);fill-opacity:1;" d="M 445.902344 685.386719 C 445.902344 648.738281 416.203125 619.039062 379.589844 619.039062 C 342.941406 619.039062 313.242188 648.738281 313.242188 685.386719 C 313.242188 721.996094 342.941406 751.699219 379.589844 751.699219 C 416.203125 751.699219 445.902344 721.996094 445.902344 685.386719 Z M 445.902344 685.386719 "/>
<path style="fill:none;stroke-width:34.8697;stroke-linecap:butt;stroke-linejoin:miter;stroke:rgb(0%,0%,0%);stroke-opacity:1;stroke-miterlimit:10;" d="M 14584.298177 23232.195226 C 14584.298177 23333.996441 14501.800347 23416.505122 14400.096788 23416.505122 C 14298.295573 23416.505122 14215.797743 23333.996441 14215.797743 23232.195226 C 14215.797743 23130.502517 14298.295573 23048.004687 14400.096788 23048.004687 C 14501.800347 23048.004687 14584.298177 23130.502517 14584.298177 23232.195226 Z M 14584.298177 23232.195226 " transform="matrix(0.36,0,0,-0.36,-4804.445,9048.977)"/>
<path style=" stroke:none;fill-rule:nonzero;fill:rgb(80.076599%,80.076599%,80.076599%);fill-opacity:1;" d="M 752.046875 685.386719 C 752.046875 648.738281 722.347656 619.039062 685.734375 619.039062 C 649.085938 619.039062 619.386719 648.738281 619.386719 685.386719 C 619.386719 721.996094 649.085938 751.699219 685.734375 751.699219 C 722.347656 751.699219 752.046875 721.996094 752.046875 685.386719 Z M 752.046875 685.386719 "/>
<path style="fill:none;stroke-width:34.8697;stroke-linecap:butt;stroke-linejoin:miter;stroke:rgb(0%,0%,0%);stroke-opacity:1;stroke-miterlimit:10;" d="M 15434.699653 23232.195226 C 15434.699653 23333.996441 15352.201823 23416.505122 15250.498264 23416.505122 C 15148.697049 23416.505122 15066.199219 23333.996441 15066.199219 23232.195226 C 15066.199219 23130.502517 15148.697049 23048.004687 15250.498264 23048.004687 C 15352.201823 23048.004687 15434.699653 23130.502517 15434.699653 23232.195226 Z M 15434.699653 23232.195226 " transform="matrix(0.36,0,0,-0.36,-4804.445,9048.977)"/>
<path style=" stroke:none;fill-rule:nonzero;fill:rgb(100%,100%,100%);fill-opacity:1;" d="M 292.832031 379.242188 C 292.832031 342.59375 263.128906 312.894531 226.519531 312.894531 C 189.871094 312.894531 160.171875 342.59375 160.171875 379.242188 C 160.171875 415.851562 189.871094 445.554688 226.519531 445.554688 C 263.128906 445.554688 292.832031 415.851562 292.832031 379.242188 Z M 292.832031 379.242188 "/>
<path style="fill:none;stroke-width:34.8697;stroke-linecap:butt;stroke-linejoin:miter;stroke:rgb(0%,0%,0%);stroke-opacity:1;stroke-miterlimit:10;" d="M 14159.102865 24082.596701 C 14159.102865 24184.397917 14076.605035 24266.895747 13974.901476 24266.895747 C 13873.10026 24266.895747 13790.602431 24184.397917 13790.602431 24082.596701 C 13790.602431 23980.903993 13873.10026 23898.395312 13974.901476 23898.395312 C 14076.605035 23898.395312 14159.102865 23980.903993 14159.102865 24082.596701 Z M 14159.102865 24082.596701 " transform="matrix(0.36,0,0,-0.36,-4804.445,9048.977)"/>
<path style="fill-rule:nonzero;fill:rgb(100%,100%,100%);fill-opacity:1;stroke-width:34.8697;stroke-linecap:butt;stroke-linejoin:miter;stroke:rgb(0%,0%,0%);stroke-opacity:1;stroke-miterlimit:10;" d="M 14584.298177 24933.095833 C 14584.298177 25034.799392 14501.800347 25117.297222 14400.096788 25117.297222 C 14298.295573 25117.297222 14215.797743 25034.799392 14215.797743 24933.095833 C 14215.797743 24831.294618 14298.295573 24748.796788 14400.096788 24748.796788 C 14501.800347 24748.796788 14584.298177 24831.294618 14584.298177 24933.095833 Z M 14584.298177 24933.095833 " transform="matrix(0.36,0,0,-0.36,-4804.445,9048.977)"/>
<path style="fill:none;stroke-width:34.8697;stroke-linecap:butt;stroke-linejoin:miter;stroke:rgb(0%,0%,0%);stroke-opacity:1;stroke-miterlimit:10;" d="M 13884.699653 23902.301562 L 13693.195747 23519.304601 " transform="matrix(0.36,0,0,-0.36,-4804.445,9048.977)"/>
<path style=" stroke:none;fill-rule:nonzero;fill:rgb(0%,0%,0%);fill-opacity:1;" d="M 105.882812 620.441406 C 113.730469 610.109375 129.355469 594.84375 143.214844 585.773438 L 111.246094 569.753906 C 112.289062 586.3125 109.445312 607.984375 105.882812 620.441406 "/>
<path style="fill:none;stroke-width:34.8697;stroke-linecap:butt;stroke-linejoin:miter;stroke:rgb(0%,0%,0%);stroke-opacity:1;stroke-miterlimit:10;" d="M 14065.103299 23902.301562 L 14256.498698 23519.304601 " transform="matrix(0.36,0,0,-0.36,-4804.445,9048.977)"/>
<path style=" stroke:none;fill-rule:nonzero;fill:rgb(0%,0%,0%);fill-opacity:1;" d="M 347.117188 620.441406 C 343.554688 607.984375 340.710938 586.3125 341.753906 569.753906 L 309.785156 585.773438 C 323.648438 594.84375 339.269531 610.109375 347.117188 620.441406 "/>
<path style="fill:none;stroke-width:34.8697;stroke-linecap:butt;stroke-linejoin:miter;stroke:rgb(0%,0%,0%);stroke-opacity:1;stroke-miterlimit:10;" d="M 14309.894965 24752.703038 L 14118.40191 24369.695226 " transform="matrix(0.36,0,0,-0.36,-4804.445,9048.977)"/>
<path style=" stroke:none;fill-rule:nonzero;fill:rgb(0%,0%,0%);fill-opacity:1;" d="M 258.992188 314.296875 C 266.804688 303.964844 282.425781 288.664062 296.285156 279.628906 L 264.320312 263.609375 C 265.363281 280.132812 262.519531 301.839844 258.992188 314.296875 "/>
<path style="fill:none;stroke-width:34.8697;stroke-linecap:butt;stroke-linejoin:miter;stroke:rgb(0%,0%,0%);stroke-opacity:1;stroke-miterlimit:10;" d="M 14490.298611 24752.703038 L 15106.900174 23519.304601 " transform="matrix(0.36,0,0,-0.36,-4804.445,9048.977)"/>
<path style=" stroke:none;fill-rule:nonzero;fill:rgb(0%,0%,0%);fill-opacity:1;" d="M 653.261719 620.441406 C 649.699219 607.984375 646.855469 586.3125 647.898438 569.753906 L 615.929688 585.773438 C 629.789062 594.84375 645.414062 610.109375 653.261719 620.441406 "/>
</g>
</svg>
