<?xml version="1.0" encoding="UTF-8"?>
<svg xmlns="http://www.w3.org/2000/svg" xmlns:xlink="http://www.w3.org/1999/xlink" width="905pt" height="700pt" viewBox="0 0 905 700" version="1.1"><!--latexit:AAAOOnjarVdrbBzVFb43MSQzzpLNA0gCITfYDgms7V079jpN180L82rMY23Hye7i
3p253r3xvDpzF2czXelSBEICVRWqKkCAiPlDoC0PtbzaqvADAUKVSoIQ/1D/tT9a
qa2q/qt65mHj9XpR3HYta8+c893zmnPOPVt2DO6JdPpzvG59x1VXz5+b7n6IuR63
reluu3yWacI73U1drcqBPdEtbGcrwo+9+Fpy74aNe2/u6u7Zd8v+A7felhk5lDt6
x53j956aLs5oetWwPTHZbdUM47Kidm66jpwaz/fNsbp3Br5jvVPdmkE972Lims3J
LVu3bb9WrpPrZYe8Sl4tN8iNUpHqxet37Nx1w427b9ojO+UmeY3cLLfIXfIGuVve
JMl0mXrM4Bab1GzDdidMW2eTgguDTTsuo2bZYCWTViw+yzUqIKQJnQo2k9xcptpc
xbVrln48OHjGs2uuxibYOdGF4s/lVG9nX396cjz/wB3HiuP5EJh3qMbG0gT+UBLL
xKWBwYNDZ6IwLGqy6Yhk3qn4wMJwdpGcHs/fG8ad7LjU+a3D3z4NifCEy62KTN4H
ika/A46N50/WBAW/86HkpdEjWTgXPVw+1nn8xO1jS8/g1FEBVLkmmCe3yp1y28yW
DV8VdVurmcwSoSuFTNoRJZ+6gmsGa6jFmscgiDlaYQWHOsyd57qo5jJD3EqRkFFl
vFIVIafkV5htMuHWmw8CGUTrlfww7w3SAxydzNou/FuChNzlJ3xqel7dLAPSpKLq
rZQFzNVkhZqYHSn53HIgRkuLDM3WDCJsIuoOIzp3IaNGHQiquRyCJFqVulQTUMNN
Vrw5qMWmMHzB585HnIAyeNmlbt13bI8HtQIZbhVS17XnvVb+LBetTI0a2ioqasKG
QGmrRGea7YZ16vWZ1J0DD7xvRjmQMJc5BtVCb9ViAAS4P5ozoNLPNWKOqBuQAQva
o5ErlAE+l9JdOp+LyKCDSFwHfUOOSHlVKIScxl0omdQsN4zcfJULljK5xc2aSTx+
nuVGTLO0XL1d/h/0h8C9A+m9V2BIZ+KKLenMggkB5WELwfT/LjANMi3WGFtQldSq
rMEKCLUrMJLuy67FyuAKK2UjthFh2wTS/hU1a8+YZipo+FzRg+ZzRMBMcctiLoEu
C/Q0Ga8bV5LFVY3XmWHY82u33rPMPGWu3ciRAtxjdSKqHOyGgyr24eu+yvmL3ZcK
iBwVZHEokAy4KarEL4aToOBBj7PgzZf80UajkQKcgOETKokVskZTEgQNvCj0ji4P
egCCXuZL84Eqt1Y9FJdCu3N6W0tkRVc0aegphtPW75/0YIT2C5il9Wr/ifhO8fqj
CWix+cZicmHc2E44j/r7NHjBOX+J35WBpJAecrbmiWBma7YJwxfIKiMBtGk8we29
VBtkWXGQle4vK3ayshFIeKvDZQS5h0rwUqS5ZtJQNEusWGe6ZZKtzZUVw+v/5dPq
fgbr1F33nLxwt9x+4bvyWrljajw/Bl3w+X33P9CZn5icguc8qIU1YXbMoBUPnsfh
su46sj9abJJJeZ28fuqkbVHNhr3j9JlYw0IhG1PALT0I68UJHpYy3DoLpSwwv0dn
kluXbR16tIgslLOr8ruOHItMXmKds5VgARQcHDn6/r6S/8yvDskbQSU/CzZPQJcs
zGVjKti8zP70WAaaLYNkIth7nNvH5J5ow1k3XCyzCrfC69sBD2tusNcEo4UUokuo
RPZb6QME+nZ/NgWETxqHWxGZCHGoPWIgQmQy7SGDMWSwPeRgDBlaCfEWEUMRYqRv
KDXQBjK86Mo3YLIxJp062AYxshTQ8CIiqG5SCGZF7Elvb5i9tqJMqygbi4bai4Zb
RSOxKNsqGo5FA+1Fg+0VHgxEzNKbKwSKrfbQTHLb0or9dXW/VCtlw+X7HlZn+tH4
x85n9fMTrm0LidFGtAXtQl2oFw2gLCogiqrIQT76IXoS/Qj9GD2FfoJ+ip5Gz6Ln
0AvoZfQK+hn6BXodvYl+id5C76D30G/Qh+hT9Af0BfoK/QX9HXfgzXgH3oN78AA+
hA/jHD6GT+Ip/CCmmGMXC1zHj+BH8WP4Cfw8voBfwW/g9/BH+BP8Kf698rrytvKu
8mvlt8rvlA+Uj5XPlC+VPyp/Uv6m/EP5p/Iv5d/qelVVE+p2dae6Tz2g9qnH1TG1
oOoqV7+vnld/oD6sPq4+oT6lPqO+qC6oF9VX1Z+rr23686a/JjoSGxO7ErsTN0e9
uw7HP4h81PRJdP8HATTkWg==
-->
<g id="surface1">
<path style="fill-rule:nonzero;fill:rgb(80.076599%,80.076599%,80.076599%);fill-opacity:1;stroke-width:14.9442;stroke-linecap:butt;stroke-linejoin:miter;stroke:rgb(0%,0%,0%);stroke-opacity:1;stroke-miterlimit:10;" d="M 4379.521615 7473.153299 C 4379.521615 7535.772656 4328.762066 7586.543056 4266.142708 7586.543056 C 4203.523351 7586.543056 4152.752951 7535.772656 4152.752951 7473.153299 C 4152.752951 7410.533941 4203.523351 7359.763542 4266.142708 7359.763542 C 4328.762066 7359.763542 4379.521615 7410.533941 4379.521615 7473.153299 Z M 4379.521615 7473.153299 " transform="matrix(0.36,0,0,-0.36,-1491.452,3346.593)"/>
<path style="fill-rule:nonzero;fill:rgb(80.076599%,80.076599%,80.076599%);fill-opacity:1;stroke-width:14.9442;stroke-linecap:butt;stroke-linejoin:miter;stroke:rgb(0%,0%,0%);stroke-opacity:1;stroke-miterlimit:10;" d="M 4946.459549 7473.153299 C 4946.459549 7535.772656 4895.7 7586.543056 4833.069792 7586.543056 C 4770.450434 7586.543056 4719.690885 7535.772656 4719.690885 7473.153299 C 4719.690885 7410.533941 4770.450434 7359.763542 4833.069792 7359.763542 C 4895.7 7359.763542 4946.459549 7410.533941 4946.459549 7473.153299 Z M 4946.459549 7473.153299 " transform="matrix(0.36,0,0,-0.36,-1491.452,3346.593)"/>
<path style="fill-rule:nonzero;fill:rgb(80.076599%,80.076599%,80.076599%);fill-opacity:1;stroke-width:14.9442;stroke-linecap:butt;stroke-linejoin:miter;stroke:rgb(0%,0%,0%);stroke-opacity:1;stroke-miterlimit:10;" d="M 5513.386632 7473.153299 C 5513.386632 7535.772656 5462.627083 7586.543056 5400.007726 7586.543056 C 5337.388368 7586.543056 5286.617969 7535.772656 5286.617969 7473.153299 C 5286.617969 7410.533941 5337.388368 7359.763542 5400.007726 7359.763542 C 5462.627083 7359.763542 5513.386632 7410.533941 5513.386632 7473.153299 Z M 5513.386632 7473.153299 " transform="matrix(0.36,0,0,-0.36,-1491.452,3346.593)"/>
<path style=" stroke:none;fill-rule:nonzero;fill:rgb(80.076599%,80.076599%,80.076599%);fill-opacity:1;" d="M 697.464844 656.257812 C 697.464844 633.714844 679.191406 615.4375 656.648438 615.4375 C 634.101562 615.4375 615.828125 633.714844 615.828125 656.257812 C 615.828125 678.800781 634.101562 697.078125 656.648438 697.078125 C 679.191406 697.078125 697.464844 678.800781 697.464844 656.257812 Z M 697.464844 656.257812 "/>
<path style="fill:none;stroke-width:14.9442;stroke-linecap:butt;stroke-linejoin:miter;stroke:rgb(0%,0%,0%);stroke-opacity:1;stroke-miterlimit:10;" d="M 6080.335417 7473.153299 C 6080.335417 7535.772656 6029.565017 7586.543056 5966.94566 7586.543056 C 5904.315451 7586.543056 5853.555903 7535.772656 5853.555903 7473.153299 C 5853.555903 7410.533941 5904.315451 7359.763542 5966.94566 7359.763542 C 6029.565017 7359.763542 6080.335417 7410.533941 6080.335417 7473.153299 Z M 6080.335417 7473.153299 " transform="matrix(0.36,0,0,-0.36,-1491.452,3346.593)"/>
<path style=" stroke:none;fill-rule:nonzero;fill:rgb(80.076599%,80.076599%,80.076599%);fill-opacity:1;" d="M 901.566406 656.257812 C 901.566406 633.714844 883.289062 615.4375 860.746094 615.4375 C 838.203125 615.4375 819.925781 633.714844 819.925781 656.257812 C 819.925781 678.800781 838.203125 697.078125 860.746094 697.078125 C 883.289062 697.078125 901.566406 678.800781 901.566406 656.257812 Z M 901.566406 656.257812 "/>
<path style="fill:none;stroke-width:14.9442;stroke-linecap:butt;stroke-linejoin:miter;stroke:rgb(0%,0%,0%);stroke-opacity:1;stroke-miterlimit:10;" d="M 6647.273351 7473.153299 C 6647.273351 7535.772656 6596.502951 7586.543056 6533.883594 7586.543056 C 6471.264236 7586.543056 6420.504687 7535.772656 6420.504687 7473.153299 C 6420.504687 7410.533941 6471.264236 7359.763542 6533.883594 7359.763542 C 6596.502951 7359.763542 6647.273351 7410.533941 6647.273351 7473.153299 Z M 6647.273351 7473.153299 " transform="matrix(0.36,0,0,-0.36,-1491.452,3346.593)"/>
<path style="fill-rule:nonzero;fill:rgb(100%,100%,100%);fill-opacity:1;stroke-width:14.9442;stroke-linecap:butt;stroke-linejoin:miter;stroke:rgb(0%,0%,0%);stroke-opacity:1;stroke-miterlimit:10;" d="M 4804.727778 8040.091233 C 4804.727778 8102.71059 4753.957378 8153.470139 4691.338021 8153.470139 C 4628.707812 8153.470139 4577.948264 8102.71059 4577.948264 8040.091233 C 4577.948264 7977.461024 4628.707812 7926.701476 4691.338021 7926.701476 C 4753.957378 7926.701476 4804.727778 7977.461024 4804.727778 8040.091233 Z M 4804.727778 8040.091233 " transform="matrix(0.36,0,0,-0.36,-1491.452,3346.593)"/>
<path style="fill-rule:nonzero;fill:rgb(100%,100%,100%);fill-opacity:1;stroke-width:14.9442;stroke-linecap:butt;stroke-linejoin:miter;stroke:rgb(0%,0%,0%);stroke-opacity:1;stroke-miterlimit:10;" d="M 5655.129253 8040.091233 C 5655.129253 8102.71059 5604.369705 8153.470139 5541.739497 8153.470139 C 5479.120139 8153.470139 5428.36059 8102.71059 5428.36059 8040.091233 C 5428.36059 7977.461024 5479.120139 7926.701476 5541.739497 7926.701476 C 5604.369705 7926.701476 5655.129253 7977.461024 5655.129253 8040.091233 Z M 5655.129253 8040.091233 " transform="matrix(0.36,0,0,-0.36,-1491.452,3346.593)"/>
<path style=" stroke:none;fill-rule:nonzero;fill:rgb(100%,100%,100%);fill-opacity:1;" d="M 391.324219 248.066406 C 391.324219 225.523438 373.046875 207.246094 350.503906 207.246094 C 327.957031 207.246094 309.679688 225.523438 309.679688 248.066406 C 309.679688 270.609375 327.957031 288.882812 350.503906 288.882812 C 373.046875 288.882812 391.324219 270.609375 391.324219 248.066406 Z M 391.324219 248.066406 "/>
<path style="fill:none;stroke-width:14.9442;stroke-linecap:butt;stroke-linejoin:miter;stroke:rgb(0%,0%,0%);stroke-opacity:1;stroke-miterlimit:10;" d="M 5229.933941 8607.018316 C 5229.933941 8669.637674 5179.163542 8720.408073 5116.544184 8720.408073 C 5053.924826 8720.408073 5003.154427 8669.637674 5003.154427 8607.018316 C 5003.154427 8544.398958 5053.924826 8493.63941 5116.544184 8493.63941 C 5179.163542 8493.63941 5229.933941 8544.398958 5229.933941 8607.018316 Z M 5229.933941 8607.018316 " transform="matrix(0.36,0,0,-0.36,-1491.452,3346.593)"/>
<path style="fill-rule:nonzero;fill:rgb(100%,100%,100%);fill-opacity:1;stroke-width:14.9442;stroke-linecap:butt;stroke-linejoin:miter;stroke:rgb(0%,0%,0%);stroke-opacity:1;stroke-miterlimit:10;" d="M 5513.386632 9173.95625 C 5513.386632 9236.575608 5462.627083 9287.346007 5400.007726 9287.346007 C 5337.388368 9287.346007 5286.617969 9236.575608 5286.617969 9173.95625 C 5286.617969 9111.336892 5337.388368 9060.566493 5400.007726 9060.566493 C 5462.627083 9060.566493 5513.386632 9111.336892 5513.386632 9173.95625 Z M 5513.386632 9173.95625 " transform="matrix(0.36,0,0,-0.36,-1491.452,3346.593)"/>
<path style="fill:none;stroke-width:19.9255;stroke-linecap:butt;stroke-linejoin:miter;stroke:rgb(0%,0%,0%);stroke-opacity:1;stroke-miterlimit:10;" d="M 4618.82283 7943.400694 L 4385.999479 7632.962326 " transform="matrix(0.36,0,0,-0.36,-1491.452,3346.593)"/>
<path style=" stroke:none;fill-rule:nonzero;fill:rgb(0%,0%,0%);fill-opacity:1;" d="M 70.460938 621.449219 C 76.777344 615.664062 88.769531 607.566406 98.871094 603.304688 L 79.933594 589.101562 C 78.667969 599.988281 74.253906 613.773438 70.460938 621.449219 "/>
<path style="fill:none;stroke-width:19.9255;stroke-linecap:butt;stroke-linejoin:miter;stroke:rgb(0%,0%,0%);stroke-opacity:1;stroke-miterlimit:10;" d="M 4720.645747 7922.838628 L 4784.578038 7667.131163 " transform="matrix(0.36,0,0,-0.36,-1491.452,3346.593)"/>
<path style=" stroke:none;fill-rule:nonzero;fill:rgb(0%,0%,0%);fill-opacity:1;" d="M 237.90625 614.046875 C 237.390625 605.480469 238.667969 591.03125 241.738281 580.480469 L 218.71875 586.234375 C 226.394531 594.101562 234.324219 606.246094 237.90625 614.046875 "/>
<path style="fill:none;stroke-width:19.9255;stroke-linecap:butt;stroke-linejoin:miter;stroke:rgb(0%,0%,0%);stroke-opacity:1;stroke-miterlimit:10;" d="M 5044.018142 8510.338628 L 4811.194792 8199.90026 " transform="matrix(0.36,0,0,-0.36,-1491.452,3346.593)"/>
<path style=" stroke:none;fill-rule:nonzero;fill:rgb(0%,0%,0%);fill-opacity:1;" d="M 223.539062 417.355469 C 229.847656 411.566406 241.84375 403.46875 251.941406 399.207031 L 233.003906 385.003906 C 231.742188 395.890625 227.324219 409.671875 223.539062 417.355469 "/>
<path style="fill:none;stroke-width:19.9255;stroke-linecap:butt;stroke-linejoin:miter;stroke:rgb(0%,0%,0%);stroke-opacity:1;stroke-miterlimit:10;" d="M 5189.059375 8510.338628 L 5421.882726 8199.90026 " transform="matrix(0.36,0,0,-0.36,-1491.452,3346.593)"/>
<path style=" stroke:none;fill-rule:nonzero;fill:rgb(0%,0%,0%);fill-opacity:1;" d="M 477.46875 417.355469 C 473.679688 409.671875 469.261719 395.890625 468 385.003906 L 449.0625 399.207031 C 459.164062 403.46875 471.15625 411.566406 477.46875 417.355469 "/>
<path style="fill:none;stroke-width:19.9255;stroke-linecap:butt;stroke-linejoin:miter;stroke:rgb(0%,0%,0%);stroke-opacity:1;stroke-miterlimit:10;" d="M 5345.743403 9065.427604 L 5206.01901 8785.978819 " transform="matrix(0.36,0,0,-0.36,-1491.452,3346.593)"/>
<path style=" stroke:none;fill-rule:nonzero;fill:rgb(0%,0%,0%);fill-opacity:1;" d="M 369.960938 209.148438 C 375.15625 202.296875 385.546875 192.144531 394.761719 186.121094 L 373.503906 175.492188 C 374.210938 186.472656 372.320312 200.878906 369.960938 209.148438 "/>
<path style="fill:none;stroke-width:19.9255;stroke-linecap:butt;stroke-linejoin:miter;stroke:rgb(0%,0%,0%);stroke-opacity:1;stroke-miterlimit:10;" d="M 5512.431771 7922.838628 L 5448.499479 7667.131163 " transform="matrix(0.36,0,0,-0.36,-1491.452,3346.593)"/>
<path style=" stroke:none;fill-rule:nonzero;fill:rgb(0%,0%,0%);fill-opacity:1;" d="M 463.101562 614.046875 C 466.683594 606.246094 474.613281 594.101562 482.285156 586.234375 L 459.265625 580.480469 C 462.335938 591.03125 463.613281 605.480469 463.101562 614.046875 "/>
<path style="fill:none;stroke-width:19.9255;stroke-linecap:butt;stroke-linejoin:miter;stroke:rgb(0%,0%,0%);stroke-opacity:1;stroke-miterlimit:10;" d="M 5614.254687 7943.400694 L 5847.088889 7632.962326 " transform="matrix(0.36,0,0,-0.36,-1491.452,3346.593)"/>
<path style=" stroke:none;fill-rule:nonzero;fill:rgb(0%,0%,0%);fill-opacity:1;" d="M 630.542969 621.449219 C 626.753906 613.773438 622.335938 599.988281 621.074219 589.101562 L 602.136719 603.304688 C 612.238281 607.566406 624.226562 615.664062 630.542969 621.449219 "/>
<path style="fill:none;stroke-width:19.9255;stroke-linecap:butt;stroke-linejoin:miter;stroke:rgb(0%,0%,0%);stroke-opacity:1;stroke-miterlimit:10;" d="M 5467.249479 9073.088194 L 6422.72908 7639.874219 " transform="matrix(0.36,0,0,-0.36,-1491.452,3346.593)"/>
<path style=" stroke:none;fill-rule:nonzero;fill:rgb(0%,0%,0%);fill-opacity:1;" d="M 836.535156 619.945312 C 833.171875 612.042969 829.511719 597.992188 828.851562 587.019531 L 809.09375 600.1875 C 818.972656 605.019531 830.53125 613.800781 836.535156 619.945312 "/>
</g>
</svg>
