<?xml version="1.0" encoding="UTF-8" standalone="no"?>
<!DOCTYPE svg PUBLIC "-//W3C//DTD SVG 1.1//EN"
 "http://www.w3.org/Graphics/SVG/1.1/DTD/svg11.dtd">
<!-- Generated by graphviz version 2.36.0 (20140111.2315)
 -->
<!-- Title: REVDAG Pages: 1 -->
<svg width="588pt" height="348pt"
 viewBox="0.00 0.00 588.00 348.00" xmlns="http://www.w3.org/2000/svg" xmlns:xlink="http://www.w3.org/1999/xlink">
<g id="graph0" class="graph" transform="scale(1 1) rotate(0) translate(18 330)">
<title>REVDAG</title>
<polygon fill="#eee0e5" stroke="none" points="-18,18 -18,-330 570,-330 570,18 -18,18"/>
<!-- n_speciation -->
<g id="node1" class="node"><title>n_speciation</title>
<ellipse fill="white" stroke="black" cx="148" cy="-114" rx="47.169" ry="18"/>
<text text-anchor="middle" x="148" y="-110.3" font-family="Times,serif" font-size="14.00">speciation</text>
</g>
<!-- n_diversification -->
<g id="node5" class="node"><title>n_diversification</title>
<ellipse fill="white" stroke="black" stroke-dasharray="5,2" cx="305" cy="-27" rx="86.4614" ry="26.7407"/>
<text text-anchor="middle" x="305" y="-30.8" font-family="Times,serif" font-size="14.00">diversification</text>
<text text-anchor="middle" x="305" y="-15.8" font-family="Times,serif" font-size="14.00">[ sub(Real&lt;any&gt;) ]</text>
</g>
<!-- n_speciation&#45;&gt;n_diversification -->
<g id="edge1" class="edge"><title>n_speciation&#45;&gt;n_diversification</title>
<path fill="none" stroke="black" stroke-dasharray="5,2" d="M174.278,-98.7729C196.081,-86.9688 227.72,-69.8394 254.41,-55.3894"/>
<polygon fill="black" stroke="black" points="256.123,-58.4421 263.251,-50.6032 252.79,-52.2864 256.123,-58.4421"/>
</g>
<!-- n_turnover -->
<g id="node10" class="node"><title>n_turnover</title>
<ellipse fill="white" stroke="black" stroke-dasharray="5,2" cx="100" cy="-27" rx="100.114" ry="26.7407"/>
<text text-anchor="middle" x="100" y="-30.8" font-family="Times,serif" font-size="14.00">turnover</text>
<text text-anchor="middle" x="100" y="-15.8" font-family="Times,serif" font-size="14.00">[ div(RealPos&lt;any&gt;) ]</text>
</g>
<!-- n_speciation&#45;&gt;n_turnover -->
<g id="edge2" class="edge"><title>n_speciation&#45;&gt;n_turnover</title>
<path fill="none" stroke="black" stroke-dasharray="5,2" d="M138.517,-96.2067C133.127,-86.6626 126.173,-74.348 119.66,-62.8145"/>
<polygon fill="black" stroke="black" points="122.534,-60.7868 114.57,-53.8002 116.439,-64.2288 122.534,-60.7868"/>
</g>
<!-- n_timetree -->
<g id="node11" class="node"><title>n_timetree</title>
<ellipse fill="gray" stroke="black" cx="450" cy="-27" rx="39.9464" ry="18"/>
<text text-anchor="middle" x="450" y="-23.3" font-family="Times,serif" font-size="14.00">timetree</text>
</g>
<!-- n_speciation&#45;&gt;n_timetree -->
<g id="edge3" class="edge"><title>n_speciation&#45;&gt;n_timetree</title>
<path fill="none" stroke="black" d="M187.966,-104.218C253.911,-89.6407 380.223,-61.3259 400,-54 405.76,-51.8663 411.702,-49.2155 417.39,-46.4295"/>
<polygon fill="black" stroke="black" points="419.347,-49.3594 426.647,-41.6806 416.152,-43.1312 419.347,-49.3594"/>
</g>
<!-- n_0x7febca95dd60 -->
<g id="node2" class="node"><title>n_0x7febca95dd60</title>
<ellipse fill="white" stroke="black" stroke-dasharray="5,2" cx="141" cy="-201" rx="100.114" ry="26.7407"/>
<text text-anchor="middle" x="141" y="-204.8" font-family="Times,serif" font-size="14.00">function</text>
<text text-anchor="middle" x="141" y="-189.8" font-family="Times,serif" font-size="14.00">[ div(RealPos&lt;any&gt;) ]</text>
</g>
<!-- n_0x7febca95dd60&#45;&gt;n_speciation -->
<g id="edge4" class="edge"><title>n_0x7febca95dd60&#45;&gt;n_speciation</title>
<path fill="none" stroke="black" d="M143.138,-174.035C143.968,-163.962 144.918,-152.42 145.758,-142.23"/>
<polygon fill="black" stroke="black" points="149.249,-142.471 146.582,-132.217 142.273,-141.896 149.249,-142.471"/>
</g>
<!-- n_0x7febca95df70 -->
<g id="node3" class="node"><title>n_0x7febca95df70</title>
<polygon fill="white" stroke="black" points="159,-306 105,-306 105,-270 159,-270 159,-306"/>
<text text-anchor="middle" x="132" y="-284.3" font-family="Times,serif" font-size="14.00">1</text>
</g>
<!-- n_0x7febca95df70&#45;&gt;n_0x7febca95dd60 -->
<g id="edge5" class="edge"><title>n_0x7febca95df70&#45;&gt;n_0x7febca95dd60</title>
<path fill="none" stroke="black" stroke-dasharray="5,2" d="M133.821,-269.799C134.787,-260.682 136.01,-249.123 137.173,-238.143"/>
<polygon fill="black" stroke="black" points="140.686,-238.205 138.258,-227.892 133.725,-237.468 140.686,-238.205"/>
</g>
<!-- n_sp_mean -->
<g id="node4" class="node"><title>n_sp_mean</title>
<polygon fill="white" stroke="black" points="177,-265 177,-311 243,-311 243,-265 177,-265"/>
<text text-anchor="middle" x="210" y="-295.8" font-family="Times,serif" font-size="14.00">sp_mean</text>
<polyline fill="none" stroke="black" points="177,-288 243,-288 "/>
<text text-anchor="middle" x="210" y="-272.8" font-family="Times,serif" font-size="14.00">0.02</text>
</g>
<!-- n_sp_mean&#45;&gt;n_0x7febca95dd60 -->
<g id="edge6" class="edge"><title>n_sp_mean&#45;&gt;n_0x7febca95dd60</title>
<path fill="none" stroke="black" stroke-dasharray="5,2" d="M191.871,-264.667C184.634,-255.752 176.146,-245.295 168.199,-235.506"/>
<polygon fill="black" stroke="black" points="170.71,-233.046 161.691,-227.488 165.276,-237.458 170.71,-233.046"/>
</g>
<!-- n_extinction -->
<g id="node6" class="node"><title>n_extinction</title>
<ellipse fill="white" stroke="black" cx="308" cy="-114" rx="46.1964" ry="18"/>
<text text-anchor="middle" x="308" y="-110.3" font-family="Times,serif" font-size="14.00">extinction</text>
</g>
<!-- n_extinction&#45;&gt;n_diversification -->
<g id="edge9" class="edge"><title>n_extinction&#45;&gt;n_diversification</title>
<path fill="none" stroke="black" stroke-dasharray="5,2" d="M307.393,-95.799C307.071,-86.6821 306.663,-75.1232 306.276,-64.1433"/>
<polygon fill="black" stroke="black" points="309.764,-63.7627 305.914,-53.8924 302.769,-64.0096 309.764,-63.7627"/>
</g>
<!-- n_extinction&#45;&gt;n_turnover -->
<g id="edge7" class="edge"><title>n_extinction&#45;&gt;n_turnover</title>
<path fill="none" stroke="black" stroke-dasharray="5,2" d="M277.309,-100.458C247.306,-88.1972 200.741,-69.1683 162.859,-53.6875"/>
<polygon fill="black" stroke="black" points="164.011,-50.3774 153.43,-49.8344 161.363,-56.8572 164.011,-50.3774"/>
</g>
<!-- n_extinction&#45;&gt;n_timetree -->
<g id="edge8" class="edge"><title>n_extinction&#45;&gt;n_timetree</title>
<path fill="none" stroke="black" d="M332.088,-98.5809C355.73,-84.4295 391.931,-62.7597 417.983,-47.1649"/>
<polygon fill="black" stroke="black" points="419.955,-50.0637 426.738,-41.9245 416.36,-44.0575 419.955,-50.0637"/>
</g>
<!-- n_0x7febca95f090 -->
<g id="node7" class="node"><title>n_0x7febca95f090</title>
<ellipse fill="white" stroke="black" stroke-dasharray="5,2" cx="360" cy="-201" rx="100.114" ry="26.7407"/>
<text text-anchor="middle" x="360" y="-204.8" font-family="Times,serif" font-size="14.00">function</text>
<text text-anchor="middle" x="360" y="-189.8" font-family="Times,serif" font-size="14.00">[ div(RealPos&lt;any&gt;) ]</text>
</g>
<!-- n_0x7febca95f090&#45;&gt;n_extinction -->
<g id="edge10" class="edge"><title>n_0x7febca95f090&#45;&gt;n_extinction</title>
<path fill="none" stroke="black" d="M344.116,-174.035C337.601,-163.387 330.083,-151.097 323.599,-140.498"/>
<polygon fill="black" stroke="black" points="326.422,-138.405 318.217,-131.701 320.45,-142.058 326.422,-138.405"/>
</g>
<!-- n_0x7febca95f2d0 -->
<g id="node8" class="node"><title>n_0x7febca95f2d0</title>
<polygon fill="white" stroke="black" points="351,-306 297,-306 297,-270 351,-270 351,-306"/>
<text text-anchor="middle" x="324" y="-284.3" font-family="Times,serif" font-size="14.00">1</text>
</g>
<!-- n_0x7febca95f2d0&#45;&gt;n_0x7febca95f090 -->
<g id="edge11" class="edge"><title>n_0x7febca95f2d0&#45;&gt;n_0x7febca95f090</title>
<path fill="none" stroke="black" stroke-dasharray="5,2" d="M331.285,-269.799C335.266,-260.4 340.346,-248.406 345.123,-237.126"/>
<polygon fill="black" stroke="black" points="348.357,-238.466 349.034,-227.892 341.911,-235.736 348.357,-238.466"/>
</g>
<!-- n_ext_mean -->
<g id="node9" class="node"><title>n_ext_mean</title>
<polygon fill="white" stroke="black" points="369.5,-265 369.5,-311 440.5,-311 440.5,-265 369.5,-265"/>
<text text-anchor="middle" x="405" y="-295.8" font-family="Times,serif" font-size="14.00">ext_mean</text>
<polyline fill="none" stroke="black" points="369.5,-288 440.5,-288 "/>
<text text-anchor="middle" x="405" y="-272.8" font-family="Times,serif" font-size="14.00">0.01</text>
</g>
<!-- n_ext_mean&#45;&gt;n_0x7febca95f090 -->
<g id="edge12" class="edge"><title>n_ext_mean&#45;&gt;n_0x7febca95f090</title>
<path fill="none" stroke="black" stroke-dasharray="5,2" d="M393.177,-264.667C388.638,-256.094 383.345,-246.095 378.336,-236.636"/>
<polygon fill="black" stroke="black" points="381.428,-234.995 373.656,-227.795 375.242,-238.27 381.428,-234.995"/>
</g>
<!-- n_root_time -->
<g id="node12" class="node"><title>n_root_time</title>
<polygon fill="white" stroke="black" points="394.5,-91 394.5,-137 465.5,-137 465.5,-91 394.5,-91"/>
<text text-anchor="middle" x="430" y="-121.8" font-family="Times,serif" font-size="14.00">root_time</text>
<polyline fill="none" stroke="black" points="394.5,-114 465.5,-114 "/>
<text text-anchor="middle" x="430" y="-98.8" font-family="Times,serif" font-size="14.00">33.24077</text>
</g>
<!-- n_root_time&#45;&gt;n_timetree -->
<g id="edge13" class="edge"><title>n_root_time&#45;&gt;n_timetree</title>
<path fill="none" stroke="black" d="M435.255,-90.6673C437.824,-79.7461 440.938,-66.512 443.641,-55.0247"/>
<polygon fill="black" stroke="black" points="447.097,-55.6187 445.981,-45.0828 440.283,-54.0153 447.097,-55.6187"/>
</g>
<!-- n_sampling -->
<g id="node13" class="node"><title>n_sampling</title>
<polygon fill="white" stroke="black" points="484,-91 484,-137 552,-137 552,-91 484,-91"/>
<text text-anchor="middle" x="518" y="-121.8" font-family="Times,serif" font-size="14.00">sampling</text>
<polyline fill="none" stroke="black" points="484,-114 552,-114 "/>
<text text-anchor="middle" x="518" y="-98.8" font-family="Times,serif" font-size="14.00">1</text>
</g>
<!-- n_sampling&#45;&gt;n_timetree -->
<g id="edge14" class="edge"><title>n_sampling&#45;&gt;n_timetree</title>
<path fill="none" stroke="black" d="M500.134,-90.6673C490.67,-78.8376 479.035,-64.2943 469.357,-52.1968"/>
<polygon fill="black" stroke="black" points="472.001,-49.898 463.021,-44.2757 466.535,-54.2709 472.001,-49.898"/>
</g>
</g>
</svg>
