<svg xmlns="http://www.w3.org/2000/svg" version="1.1" width="1247" height="654" preserveAspectRatio="none" id="SVG" style="stroke-width: 4px; font-size: 17px; font-family: sans-serif; shape-rendering: crispEdges;" viewBox="-402.7853088378906 -55.5 1941.061279296875 733.5"><rect id="backgroundRect" x="-402.7853088378906" y="-55.5" width="1941.061279296875" height="733.5" fill="white"></rect><line x1="920.3498064083732" y1="607.2857142857143" x2="-107.09182726992042" y2="607.2857142857143" vector-effect="non-scaling-stroke" stroke="black" stroke-opacity="0.4" stroke-width="12" class="errorBar"></line><line x1="1240.9627624632037" y1="327" x2="764.1873174676639" y2="327" vector-effect="non-scaling-stroke" stroke="black" stroke-opacity="0.4" stroke-width="12" class="errorBar"></line><line x1="1226.2399249323319" y1="46.714285714285694" x2="626.8105255950344" y2="46.714285714285694" vector-effect="non-scaling-stroke" stroke="black" stroke-opacity="0.4" stroke-width="12" class="errorBar"></line><line x1="1214.6217479733664" y1="116.7857142857143" x2="520.6052731458223" y2="116.7857142857143" vector-effect="non-scaling-stroke" stroke="black" stroke-opacity="0.4" stroke-width="12" class="errorBar"></line><line x1="1150.8118778149358" y1="221.89285714285717" x2="249.86271885608932" y2="221.89285714285717" vector-effect="non-scaling-stroke" stroke="black" stroke-opacity="0.4" stroke-width="12" class="errorBar"></line><line x1="1053.6351161613736" y1="344.51785714285717" x2="63.71923520402704" y2="344.51785714285717" vector-effect="non-scaling-stroke" stroke="black" stroke-opacity="0.4" stroke-width="12" class="errorBar"></line><line x1="356.0873108880184" y1="475.90178571428567" x2="-382.78531473523077" y2="475.90178571428567" vector-effect="non-scaling-stroke" stroke="black" stroke-opacity="0.4" stroke-width="12" class="errorBar"></line><path d="M 1246.9999613208345 654 H 406.6562583808574 V 607.2857142857143" fill="none" stroke="black" stroke-opacity="1" class="treeEdge" vector-effect="non-scaling-stroke" id="node#13"></path><path d="M 1246.9999613208345 560.5714285714287 H 406.6562583808574 V 607.2857142857143" fill="none" stroke="black" stroke-opacity="1" class="treeEdge" vector-effect="non-scaling-stroke" id="node#14"></path><path d="M 1246.9999613208345 467.14285714285717 H 570.4101524046744 V 344.51785714285717" fill="none" stroke="black" stroke-opacity="1" class="treeEdge" vector-effect="non-scaling-stroke" id="node#11"></path><path d="M 1247 373.71428571428567 H 1065.086353842325 V 327" fill="none" stroke="black" stroke-opacity="1" class="treeEdge" vector-effect="non-scaling-stroke" id="node#9"></path><path d="M 1247 280.28571428571433 H 1065.086353842325 V 327" fill="none" stroke="black" stroke-opacity="1" class="treeEdge" vector-effect="non-scaling-stroke" id="node#10"></path><path d="M 1246.9999999999998 186.85714285714283 H 888.9840588953102 V 116.7857142857143" fill="none" stroke="black" stroke-opacity="1" class="treeEdge" vector-effect="non-scaling-stroke" id="node#7"></path><path d="M 1246.9999999999998 93.42857142857146 H 986.6130573511292 V 46.714285714285694" fill="none" stroke="black" stroke-opacity="1" class="treeEdge" vector-effect="non-scaling-stroke" id="node#5"></path><path d="M 1246.9999999999998 0 H 986.6130573511292 V 46.714285714285694" fill="none" stroke="black" stroke-opacity="1" class="treeEdge" vector-effect="non-scaling-stroke" id="node#6"></path><path d="M 406.6562583808574 607.2857142857143 H 12.346534653465358 V 475.90178571428567" fill="none" stroke="black" stroke-opacity="1" class="treeEdge" vector-effect="non-scaling-stroke" id="node#12"></path><path d="M 1065.086353842325 327 H 742.7860191954277 V 221.89285714285717" fill="none" stroke="black" stroke-opacity="1" class="treeEdge" vector-effect="non-scaling-stroke" id="node#8"></path><path d="M 986.6130573511292 46.714285714285694 H 888.9840588953102 V 116.7857142857143" fill="none" stroke="black" stroke-opacity="1" class="treeEdge" vector-effect="non-scaling-stroke" id="node#4"></path><path d="M 888.9840588953102 116.7857142857143 H 742.7860191954277 V 221.89285714285717" fill="none" stroke="black" stroke-opacity="1" class="treeEdge" vector-effect="non-scaling-stroke" id="node#3"></path><path d="M 742.7860191954277 221.89285714285717 H 570.4101524046744 V 344.51785714285717" fill="none" stroke="black" stroke-opacity="1" class="treeEdge" vector-effect="non-scaling-stroke" id="node#2"></path><path d="M 570.4101524046744 344.51785714285717 H 12.346534653465358 V 475.90178571428567" fill="none" stroke="black" stroke-opacity="1" class="treeEdge" vector-effect="non-scaling-stroke" id="node#1"></path><path d="M 12.346534653465358 475.90178571428567 H 0 V 475.90178571428567" fill="none" stroke="black" stroke-opacity="1" class="treeEdge" vector-effect="non-scaling-stroke" id="node#0"></path><text x="1246.9999613208345" y="654" transform="matrix(1.55658 0 0 1.12156 0 0) matrix(1 0 0 1 -445.887 -70.8834)">Ailuropoda_melanoleuca</text><text x="1246.9999613208345" y="560.5714285714287" transform="matrix(1.55658 0 0 1.12156 0 0) matrix(1 0 0 1 -445.887 -60.7572)">Tremarctos_ornatus</text><text x="1246.9999613208345" y="467.14285714285717" transform="matrix(1.55658 0 0 1.12156 0 0) matrix(1 0 0 1 -445.887 -50.631)">Helarctos_malayanus</text><text x="1247" y="373.71428571428567" transform="matrix(1.55658 0 0 1.12156 0 0) matrix(1 0 0 1 -445.887 -40.5048)">Ursus_arctos</text><text x="1247" y="280.28571428571433" transform="matrix(1.55658 0 0 1.12156 0 0) matrix(1 0 0 1 -445.887 -30.3786)">Ursus_maritimus</text><text x="1246.9999999999998" y="186.85714285714283" transform="matrix(1.55658 0 0 1.12156 0 0) matrix(1 0 0 1 -445.887 -20.2524)">Melursus_ursinus</text><text x="1246.9999999999998" y="93.42857142857146" transform="matrix(1.55658 0 0 1.12156 0 0) matrix(1 0 0 1 -445.887 -10.1262)">Ursus_americanus</text><text x="1246.9999999999998" y="0" transform="matrix(1.55658 0 0 1.12156 0 0) matrix(1 0 0 1 -445.887 0)">Ursus_thibetanus</text><text x="416.6562583808574" y="607.2857142857143" pixelOffsetX="10" pixelOffsetY="0" class="internalText" transform="matrix(1.55658 0 0 1.12156 0 0) matrix(1 0 0 1 -148.983 -65.8203) translate(3.57568 0)">0.43</text><text x="1075.086353842325" y="327" pixelOffsetX="10" pixelOffsetY="0" class="internalText" transform="matrix(1.55658 0 0 1.12156 0 0) matrix(1 0 0 1 -384.416 -35.4417) translate(3.57568 0)">1</text><text x="996.6130573511292" y="46.714285714285694" pixelOffsetX="10" pixelOffsetY="0" class="internalText" transform="matrix(1.55658 0 0 1.12156 0 0) matrix(1 0 0 1 -356.357 -5.0631) translate(3.57568 0)">0.24</text><text x="898.9840588953102" y="116.7857142857143" pixelOffsetX="10" pixelOffsetY="0" class="internalText" transform="matrix(1.55658 0 0 1.12156 0 0) matrix(1 0 0 1 -321.448 -12.6578) translate(3.57568 0)">0.24</text><text x="752.7860191954277" y="221.89285714285717" pixelOffsetX="10" pixelOffsetY="0" class="internalText" transform="matrix(1.55658 0 0 1.12156 0 0) matrix(1 0 0 1 -269.172 -24.0497) translate(3.57568 0)">0.93</text><text x="580.4101524046744" y="344.51785714285717" pixelOffsetX="10" pixelOffsetY="0" class="internalText" transform="matrix(1.55658 0 0 1.12156 0 0) matrix(1 0 0 1 -207.536 -37.3404) translate(3.57568 0)">0.81</text><text x="22.34653465346536" y="475.90178571428567" pixelOffsetX="10" pixelOffsetY="0" class="internalText" transform="matrix(1.55658 0 0 1.12156 0 0) matrix(1 0 0 1 -7.9904 -51.5804) translate(3.57568 0)">1</text><line x1="1247" y1="678" x2="1247" y2="-55.500000000000064" stroke="gray" stroke-width="1px" vector-effect="non-scaling-stroke" class="axisComponent"></line><text x="1247" y="678" fill="gray" class="axisComponent" transform="matrix(1.55658 0 0 1.12156 0 0) matrix(1 0 0 1 -445.887 -73.4847)">0</text><line x1="860.2083456580524" y1="678" x2="860.2083456580524" y2="-55.500000000000064" stroke="gray" stroke-width="1px" vector-effect="non-scaling-stroke" class="axisComponent"></line><text x="860.2083456580524" y="678" fill="gray" class="axisComponent" transform="matrix(1.55658 0 0 1.12156 0 0) matrix(1 0 0 1 -307.583 -73.4847)">10</text><line x1="473.4166913161048" y1="678" x2="473.4166913161048" y2="-55.500000000000064" stroke="gray" stroke-width="1px" vector-effect="non-scaling-stroke" class="axisComponent"></line><text x="473.4166913161048" y="678" fill="gray" class="axisComponent" transform="matrix(1.55658 0 0 1.12156 0 0) matrix(1 0 0 1 -169.279 -73.4847)">20</text><line x1="86.62503697415704" y1="678" x2="86.62503697415704" y2="-55.500000000000064" stroke="gray" stroke-width="1px" vector-effect="non-scaling-stroke" class="axisComponent"></line><text x="86.62503697415704" y="678" fill="gray" class="axisComponent" transform="matrix(1.55658 0 0 1.12156 0 0) matrix(1 0 0 1 -30.9743 -73.4847)">30</text><line x1="-300.1666173677904" y1="678" x2="-300.1666173677904" y2="-55.500000000000064" stroke="gray" stroke-width="1px" vector-effect="non-scaling-stroke" class="axisComponent"></line><text x="-300.1666173677904" y="678" fill="gray" class="axisComponent" transform="matrix(1.55658 0 0 1.12156 0 0) matrix(1 0 0 1 107.33 -73.4847)">40</text></svg>