<?xml version="1.0" encoding="UTF-8" standalone="no"?>
<!DOCTYPE svg PUBLIC "-//W3C//DTD SVG 1.1//EN"
 "http://www.w3.org/Graphics/SVG/1.1/DTD/svg11.dtd">
<!-- Generated by graphviz version 2.36.0 (20140111.2315)
 -->
<!-- Title: REVDAG Pages: 1 -->
<svg width="448pt" height="330pt"
 viewBox="0.00 0.00 448.00 330.00" xmlns="http://www.w3.org/2000/svg" xmlns:xlink="http://www.w3.org/1999/xlink">
<g id="graph0" class="graph" transform="scale(1 1) rotate(0) translate(18 312)">
<title>REVDAG</title>
<polygon fill="#eee0e5" stroke="none" points="-18,18 -18,-312 430,-312 430,18 -18,18"/>
<!-- n_speciation -->
<g id="node1" class="node"><title>n_speciation</title>
<ellipse fill="white" stroke="black" cx="312" cy="-96" rx="47.169" ry="18"/>
<text text-anchor="middle" x="312" y="-92.3" font-family="Times,serif" font-size="14.00">speciation</text>
</g>
<!-- n_timetree -->
<g id="node5" class="node"><title>n_timetree</title>
<ellipse fill="gray" stroke="black" cx="167" cy="-18" rx="39.9464" ry="18"/>
<text text-anchor="middle" x="167" y="-14.3" font-family="Times,serif" font-size="14.00">timetree</text>
</g>
<!-- n_speciation&#45;&gt;n_timetree -->
<g id="edge1" class="edge"><title>n_speciation&#45;&gt;n_timetree</title>
<path fill="none" stroke="black" d="M285.405,-81.0604C261.812,-68.6948 227.203,-50.5546 201.488,-37.0767"/>
<polygon fill="black" stroke="black" points="202.936,-33.8839 192.454,-32.3415 199.686,-40.0839 202.936,-33.8839"/>
</g>
<!-- n_0x7fc24154f460 -->
<g id="node2" class="node"><title>n_0x7fc24154f460</title>
<ellipse fill="white" stroke="black" stroke-dasharray="5,2" cx="312" cy="-183" rx="100.114" ry="26.7407"/>
<text text-anchor="middle" x="312" y="-186.8" font-family="Times,serif" font-size="14.00">function</text>
<text text-anchor="middle" x="312" y="-171.8" font-family="Times,serif" font-size="14.00">[ div(RealPos&lt;any&gt;) ]</text>
</g>
<!-- n_0x7fc24154f460&#45;&gt;n_speciation -->
<g id="edge2" class="edge"><title>n_0x7fc24154f460&#45;&gt;n_speciation</title>
<path fill="none" stroke="black" d="M312,-156.035C312,-145.962 312,-134.42 312,-124.23"/>
<polygon fill="black" stroke="black" points="315.5,-124.217 312,-114.217 308.5,-124.217 315.5,-124.217"/>
</g>
<!-- n_0x7fc24154f6a0 -->
<g id="node3" class="node"><title>n_0x7fc24154f6a0</title>
<polygon fill="white" stroke="black" points="300,-288 246,-288 246,-252 300,-252 300,-288"/>
<text text-anchor="middle" x="273" y="-266.3" font-family="Times,serif" font-size="14.00">1</text>
</g>
<!-- n_0x7fc24154f6a0&#45;&gt;n_0x7fc24154f460 -->
<g id="edge3" class="edge"><title>n_0x7fc24154f6a0&#45;&gt;n_0x7fc24154f460</title>
<path fill="none" stroke="black" stroke-dasharray="5,2" d="M280.892,-251.799C285.205,-242.4 290.708,-230.406 295.883,-219.126"/>
<polygon fill="black" stroke="black" points="299.131,-220.441 300.12,-209.892 292.769,-217.522 299.131,-220.441"/>
</g>
<!-- n_sp_mean -->
<g id="node4" class="node"><title>n_sp_mean</title>
<polygon fill="white" stroke="black" points="318,-247 318,-293 384,-293 384,-247 318,-247"/>
<text text-anchor="middle" x="351" y="-277.8" font-family="Times,serif" font-size="14.00">sp_mean</text>
<polyline fill="none" stroke="black" points="318,-270 384,-270 "/>
<text text-anchor="middle" x="351" y="-254.8" font-family="Times,serif" font-size="14.00">1</text>
</g>
<!-- n_sp_mean&#45;&gt;n_0x7fc24154f460 -->
<g id="edge4" class="edge"><title>n_sp_mean&#45;&gt;n_0x7fc24154f460</title>
<path fill="none" stroke="black" stroke-dasharray="5,2" d="M340.753,-246.667C336.86,-238.182 332.327,-228.301 328.026,-218.928"/>
<polygon fill="black" stroke="black" points="331.187,-217.424 323.835,-209.795 324.824,-220.343 331.187,-217.424"/>
</g>
<!-- n_root_time -->
<g id="node6" class="node"><title>n_root_time</title>
<polygon fill="white" stroke="black" points="-0.5,-73 -0.5,-119 70.5,-119 70.5,-73 -0.5,-73"/>
<text text-anchor="middle" x="35" y="-103.8" font-family="Times,serif" font-size="14.00">root_time</text>
<polyline fill="none" stroke="black" points="-0.5,-96 70.5,-96 "/>
<text text-anchor="middle" x="35" y="-80.8" font-family="Times,serif" font-size="14.00">33.24077</text>
</g>
<!-- n_root_time&#45;&gt;n_timetree -->
<g id="edge5" class="edge"><title>n_root_time&#45;&gt;n_timetree</title>
<path fill="none" stroke="black" d="M70.7211,-74.4333C90.627,-62.9723 115.224,-48.8102 134.574,-37.6694"/>
<polygon fill="black" stroke="black" points="136.413,-40.6492 143.333,-32.6263 132.921,-34.5829 136.413,-40.6492"/>
</g>
<!-- n_sampling -->
<g id="node7" class="node"><title>n_sampling</title>
<polygon fill="white" stroke="black" points="89,-73 89,-119 157,-119 157,-73 89,-73"/>
<text text-anchor="middle" x="123" y="-103.8" font-family="Times,serif" font-size="14.00">sampling</text>
<polyline fill="none" stroke="black" points="89,-96 157,-96 "/>
<text text-anchor="middle" x="123" y="-80.8" font-family="Times,serif" font-size="14.00">1</text>
</g>
<!-- n_sampling&#45;&gt;n_timetree -->
<g id="edge6" class="edge"><title>n_sampling&#45;&gt;n_timetree</title>
<path fill="none" stroke="black" d="M135.963,-72.6086C141.006,-63.8994 146.814,-53.8662 152.033,-44.8522"/>
<polygon fill="black" stroke="black" points="155.219,-46.3338 157.201,-35.9259 149.161,-42.8265 155.219,-46.3338"/>
</g>
<!-- n_extinction -->
<g id="node8" class="node"><title>n_extinction</title>
<polygon fill="white" stroke="black" points="175,-73 175,-119 247,-119 247,-73 175,-73"/>
<text text-anchor="middle" x="211" y="-103.8" font-family="Times,serif" font-size="14.00">extinction</text>
<polyline fill="none" stroke="black" points="175,-96 247,-96 "/>
<text text-anchor="middle" x="211" y="-80.8" font-family="Times,serif" font-size="14.00">0</text>
</g>
<!-- n_extinction&#45;&gt;n_timetree -->
<g id="edge7" class="edge"><title>n_extinction&#45;&gt;n_timetree</title>
<path fill="none" stroke="black" d="M198.037,-72.6086C192.994,-63.8994 187.186,-53.8662 181.967,-44.8522"/>
<polygon fill="black" stroke="black" points="184.839,-42.8265 176.799,-35.9259 178.781,-46.3338 184.839,-42.8265"/>
</g>
</g>
</svg>
